<svg width="48" height="48" viewBox="0 0 48 48" fill="none" xmlns="http://www.w3.org/2000/svg">
<path d="M25.3498 19.0116C25.4118 19.0116 25.4118 19.0116 25.3498 19.0116C25.7217 18.9502 25.9696 18.7045 25.9696 18.336C25.7837 16.3093 26.0936 14.1597 26.8993 12.133C28.5728 8.0795 31.9817 5.13153 35.6385 4.6402C35.9484 4.57878 36.1963 4.2717 36.1963 3.96462C36.1343 3.65754 35.8244 3.41188 35.5145 3.41188C31.4238 3.96462 27.5811 7.21968 25.7837 11.7031C24.9159 13.914 24.5441 16.2479 24.73 18.4588C24.792 18.7659 25.0399 19.0116 25.3498 19.0116Z" fill="currentColor"/>
<path d="M15.1851 10.5976C15.495 10.5361 15.7429 10.2291 15.7429 9.92199C15.6809 9.61491 15.371 9.36924 15.0611 9.36924C12.0241 9.79916 9.23502 12.133 7.87146 15.4494C7.18968 17.0463 6.94176 18.7659 7.1277 20.4242C7.18968 20.7312 7.4376 20.9769 7.7475 20.9769H7.80948C8.11938 20.9155 8.42928 20.6698 8.3673 20.3013C8.24334 18.8887 8.42928 17.3533 9.04908 15.9408C10.1647 13.0542 12.5819 10.9661 15.1851 10.5976Z" fill="currentColor"/>
<path d="M3.84276 35.2869C0.74376 36.5766 0.18594 39.0947 0 41.4285C0 41.797 0.24792 42.0426 0.557819 42.1041H0.6198C0.9297 42.1041 1.2396 41.8584 1.2396 41.5513C1.42554 39.5246 1.8594 37.4978 4.3386 36.4538C8.24334 34.8569 9.54492 32.0932 9.85481 31.2334C9.97877 31.2334 10.1027 31.2948 10.1647 31.2948C10.4126 31.2948 10.7225 31.2334 10.9705 31.1106C11.3423 30.8649 11.5903 30.4964 11.7142 30.0665L11.7762 29.5752C15.6809 30.3736 19.7716 28.0398 22.2508 23.802C23.2425 26.1359 24.854 28.1012 26.8993 29.3909L26.2795 29.9437C25.8456 30.3736 25.6597 30.9263 25.7837 31.5405C25.9076 32.1546 26.2795 32.5845 26.8373 32.8302H26.8993C26.8373 33.0145 25.9076 35.8396 22.0029 37.4978C15.557 40.1387 15.2471 47.1402 15.1851 47.3858C15.1851 47.7543 15.433 48 15.8049 48C16.1148 48 16.4247 47.7543 16.4247 47.3858C16.4247 47.1402 16.7966 40.9371 22.4367 38.5419C26.5894 36.8223 27.829 33.8129 28.0149 33.1987C28.2009 33.2601 28.3868 33.3215 28.6347 33.3215C29.0066 33.3215 29.3785 33.1987 29.6884 33.0145C30.1842 32.646 30.4322 32.0932 30.3702 31.5405L30.3082 30.7421C36.6302 32.0318 43.6339 27.6098 46.6089 20.3013C49.8939 12.1944 47.1668 3.41188 40.4729 0.770982C33.8411 -1.86991 25.7837 2.49063 22.4367 10.5362C21.569 9.12358 20.3294 8.20234 18.656 7.52676C13.7596 5.56144 7.80948 8.8165 5.39226 14.7739C3.16098 20.3013 4.40058 25.8288 8.24333 28.2854L7.93344 28.7153C7.62354 29.0838 7.56156 29.5137 7.68552 29.9437C7.80948 30.3736 8.18136 30.7421 8.6772 30.9877C8.42928 31.4791 7.31364 33.8743 3.84276 35.2869ZM39.9771 1.81506C46.0511 4.21029 48.4683 12.2558 45.4313 19.7486C42.5802 26.8114 35.7005 30.9877 29.8124 29.2681C29.6264 29.2067 29.3785 29.2681 29.2545 29.3909C29.0686 29.5137 29.0066 29.698 29.0066 29.9437L29.1306 31.5405C29.1306 31.7861 29.0066 31.909 28.9446 31.9704C28.8827 32.0318 28.6967 32.0932 28.5108 32.0318L27.2712 31.5405C27.0233 31.4791 26.9613 31.2948 26.9613 31.172C26.9613 31.1106 26.8993 30.9263 27.0852 30.7421L28.3248 29.6366C28.4488 29.5137 28.5108 29.3295 28.5108 29.0838C28.5108 28.8996 28.3868 28.7153 28.2009 28.6539C22.7466 25.8288 20.7013 18.0903 23.5524 11.0275C26.5894 3.53471 33.965 -0.580173 39.9771 1.81506ZM6.56988 15.0809C8.73918 9.73774 13.9455 6.78976 18.2221 8.50942C20.0195 9.18499 21.1352 10.2905 21.9409 11.9487C20.7633 15.4494 20.7633 19.0116 21.693 22.1438C19.4617 26.8114 15.1851 29.3295 11.4043 28.1626C11.2184 28.1012 11.0324 28.1626 10.9085 28.224C10.7845 28.3468 10.6606 28.4697 10.6606 28.6539L10.5366 29.8208C10.5366 29.8822 10.4746 29.9437 10.4126 30.0051C10.3507 30.0665 10.2267 30.0665 10.1027 30.0051L9.23501 29.698C9.04908 29.6366 8.98709 29.5137 8.92511 29.4523C8.92511 29.4523 8.92512 29.3909 8.98709 29.3295L9.73085 28.2854C9.85482 28.1626 9.85481 27.9783 9.85481 27.7941C9.79283 27.6098 9.66887 27.487 9.54492 27.3642C5.64018 25.4603 4.46256 20.3013 6.56988 15.0809Z" fill="currentColor"/>
</svg>
