<svg width="250" height="250" viewBox="0 0 250 250" fill="none" xmlns="http://www.w3.org/2000/svg">
<path d="M125 73.0244L115.234 137.375L125 250L222.066 217.824V105.2L125 73.0244Z" fill="#C48958"/>
<path d="M27.9341 105.2V217.824L125 250V73.0244L27.9341 105.2Z" fill="#E3A76F"/>
<path d="M97.0659 181.747L125 137.375L27.9341 105.2L0 149.571L97.0659 181.747Z" fill="#F2D1A5"/>
<path d="M152.934 181.747L125 137.375L222.066 105.2L250 149.571L152.934 181.747Z" fill="#E3A76F"/>
<g clip-path="url(#clip0)">
<path d="M180.833 62.5C180.833 93.3359 155.836 118.333 125 118.333C94.1641 118.333 69.1667 93.3359 69.1667 62.5C69.1667 31.664 94.1641 6.66663 125 6.66663C155.836 6.66663 180.833 31.664 180.833 62.5Z" fill="#FF5A5F"/>
<path d="M82.2525 69.9153C82.2525 72.3245 80.2997 74.2773 77.8905 74.2773C75.4814 74.2773 73.5286 72.3245 73.5286 69.9153C73.5286 67.5062 75.4814 65.5534 77.8905 65.5534C80.2997 65.5534 82.2525 67.5062 82.2525 69.9153ZM97.5195 24.1146C95.1103 24.1146 93.1575 26.0674 93.1575 28.4765C93.1575 30.8857 95.1103 32.8385 97.5195 32.8385C99.9286 32.8385 101.881 30.8857 101.881 28.4765C101.881 26.0674 99.9286 24.1146 97.5195 24.1146Z" fill="#C8373C"/>
<path d="M152.431 100.191C150.751 103.55 149.863 107.311 149.863 111.068V112.501C148.442 113.209 146.988 113.862 145.501 114.449V111.068C145.501 106.638 146.548 102.202 148.529 98.2403C151.935 91.4295 151.935 83.2975 148.53 76.4869C146.548 72.5245 145.501 68.0888 145.501 63.6592V59.0104C145.501 57.8058 146.478 56.8294 147.682 56.8294C148.887 56.8294 149.863 57.8058 149.863 59.0104V63.6592C149.863 67.4151 150.751 71.1762 152.431 74.536C156.447 82.5679 156.447 92.1584 152.431 100.191ZM101.882 84.7461C100.677 84.7461 99.7006 85.7225 99.7006 86.9271V91.5758C99.7006 95.3317 98.8127 99.0928 97.1329 102.453C96.021 104.676 95.2184 107.02 94.7222 109.416C96.0223 110.257 97.3601 111.044 98.7318 111.777C99.0982 109.234 99.8657 106.741 101.035 104.403C103.015 100.441 104.063 96.0054 104.063 91.5758V86.9271C104.063 85.7225 103.086 84.7461 101.882 84.7461Z" fill="#D74646"/>
<path d="M172.982 31.748C172.982 45.6001 161.752 56.8294 147.9 56.8294C134.048 56.8294 122.819 45.6001 122.819 31.748C122.819 17.8959 134.048 6.66663 147.9 6.66663C161.752 6.66663 172.982 17.8959 172.982 31.748Z" fill="#FFF5AF"/>
<path d="M153.353 56.2333C153.213 56.2645 153.071 56.2924 152.93 56.3212C153.197 56.7945 153.353 57.338 153.353 57.9201C153.353 59.7268 151.888 61.1916 150.081 61.1916H145.719C143.913 61.1916 142.448 59.7268 142.448 57.9201C142.448 57.3395 142.602 56.7962 142.868 56.3243C131.428 53.9941 122.819 43.8765 122.819 31.748C122.819 17.8959 134.048 6.66663 147.9 6.66663C149.773 6.66663 151.597 6.8736 153.353 7.26269C142.123 9.75251 133.724 19.7687 133.724 31.748C133.724 43.7273 142.123 53.7435 153.353 56.2333Z" fill="#FFF091"/>
<path d="M159.896 15.3905C159.896 16.5951 158.919 17.5715 157.715 17.5715C156.51 17.5715 155.534 16.5951 155.534 15.3905C155.534 14.186 156.51 13.2095 157.715 13.2095C158.919 13.2095 159.896 14.186 159.896 15.3905ZM166.439 26.2955C165.234 26.2955 164.258 27.2719 164.258 28.4765C164.258 29.681 165.234 30.6574 166.439 30.6574C167.643 30.6574 168.62 29.681 168.62 28.4765C168.62 27.2719 167.643 26.2955 166.439 26.2955ZM166.439 20.843C166.439 19.0363 164.974 17.5715 163.167 17.5715C161.361 17.5715 159.896 19.0363 159.896 20.843C159.896 22.6497 161.361 24.1145 163.167 24.1145C164.974 24.1145 166.439 22.6497 166.439 20.843Z" fill="#FFFAD2"/>
<path d="M127.181 64.4629C127.181 78.315 115.952 89.5443 102.1 89.5443C88.2474 89.5443 77.0182 78.315 77.0182 64.4629C77.0182 50.6108 88.2474 39.3815 102.1 39.3815C115.952 39.3815 127.181 50.6108 127.181 64.4629Z" fill="#96DCA0"/>
<path d="M107.552 88.9482C107.402 88.9816 107.25 89.0117 107.098 89.0424C107.167 89.1199 107.226 89.2062 107.27 89.3042C107.451 89.7107 107.552 90.1611 107.552 90.6348C107.552 92.4415 106.087 93.9063 104.281 93.9063H99.9186C98.1119 93.9063 96.6471 92.4415 96.6471 90.6348C96.6471 90.0549 96.7991 89.5107 97.0639 89.0383C85.6252 86.707 77.0182 76.5901 77.0182 64.4629C77.0182 50.6108 88.2475 39.3815 102.1 39.3815C103.972 39.3815 105.796 39.5885 107.552 39.9776C96.3221 42.4674 87.9231 52.4836 87.9231 64.4629C87.9231 76.4422 96.3221 86.4584 107.552 88.9482Z" fill="#7DC88C"/>
<path d="M114.968 48.1055C114.968 49.31 113.991 50.2865 112.787 50.2865C111.582 50.2865 110.606 49.31 110.606 48.1055C110.606 46.9009 111.582 45.9245 112.787 45.9245C113.991 45.9245 114.968 46.9009 114.968 48.1055ZM121.51 53.558C121.51 51.7512 120.046 50.2865 118.239 50.2865C116.432 50.2865 114.968 51.7512 114.968 53.558C114.968 55.3647 116.432 56.8294 118.239 56.8294C120.046 56.8294 121.51 55.3647 121.51 53.558ZM121.51 59.0104C120.306 59.0104 119.329 59.9869 119.329 61.1914C119.329 62.396 120.306 63.3724 121.51 63.3724C122.715 63.3724 123.691 62.396 123.691 61.1914C123.691 59.9869 122.715 59.0104 121.51 59.0104Z" fill="#E1FFFA"/>
<path d="M138.958 52.4674C138.958 54.8765 137.005 56.8294 134.596 56.8294C132.187 56.8294 130.234 54.8765 130.234 52.4674C130.234 50.0583 132.187 48.1054 134.596 48.1054C137.005 48.1054 138.958 50.0583 138.958 52.4674ZM119.329 80.8203C116.92 80.8203 114.967 82.7731 114.967 85.1822C114.967 87.5914 116.92 89.5442 119.329 89.5442C121.739 89.5442 123.691 87.5914 123.691 85.1822C123.691 82.7731 121.739 80.8203 119.329 80.8203Z" fill="#C8373C"/>
<path d="M176.035 71.0058C176.035 72.8125 174.57 74.2773 172.764 74.2773C170.957 74.2773 169.492 72.8125 169.492 71.0058C169.492 69.199 170.957 67.7343 172.764 67.7343C174.57 67.7343 176.035 69.199 176.035 71.0058ZM109.515 15.3906C107.708 15.3906 106.243 16.8553 106.243 18.662C106.243 20.4688 107.708 21.9335 109.515 21.9335C111.322 21.9335 112.786 20.4688 112.786 18.662C112.786 16.8553 111.322 15.3906 109.515 15.3906ZM109.515 102.63C107.708 102.63 106.243 104.095 106.243 105.902C106.243 107.708 107.708 109.173 109.515 109.173C111.322 109.173 112.786 107.708 112.786 105.902C112.786 104.095 111.322 102.63 109.515 102.63ZM137.868 83.0012C136.061 83.0012 134.596 84.466 134.596 86.2727C134.596 88.0794 136.061 89.5442 137.868 89.5442C139.674 89.5442 141.139 88.0794 141.139 86.2727C141.139 84.466 139.674 83.0012 137.868 83.0012Z" fill="#FFE67D"/>
</g>
<defs>
<clipPath id="clip0">
<rect width="111.667" height="111.667" fill="white" transform="translate(69.1667 6.66663)"/>
</clipPath>
</defs>
</svg>
