<svg width="250" height="250" viewBox="0 0 250 250" fill="none" xmlns="http://www.w3.org/2000/svg">
<g clip-path="url(#clip0)">
<path d="M125 73.0244L115.234 137.375L125 250L222.066 217.824V105.2L125 73.0244Z" fill="#C48958"/>
<path d="M27.9341 105.2V217.824L125 250V73.0244L27.9341 105.2Z" fill="#E3A76F"/>
<path d="M97.0659 181.747L125 137.375L27.9341 105.2L0 149.571L97.0659 181.747Z" fill="#F2D1A5"/>
<path d="M152.934 181.747L125 137.375L222.066 105.2L250 149.571L152.934 181.747Z" fill="#E3A76F"/>
<g clip-path="url(#clip1)">
<path d="M180 62.5C180 63.0437 179.993 63.5829 179.977 64.1219C179.925 65.9295 179.787 67.7146 179.563 69.4724C179.241 72.048 178.743 74.5693 178.079 77.0226C176.897 81.3991 175.191 85.5605 173.032 89.4364C172.488 90.4195 171.913 91.3823 171.311 92.3269C161.454 107.765 144.172 118 124.5 118C104.826 118 87.5416 107.763 77.6875 92.3228C77.085 91.3804 76.5096 90.4176 75.9659 89.4368C73.8094 85.5609 72.1034 81.3973 70.921 77.023C70.2572 74.5697 69.759 72.0484 69.4373 69.4728C69.2131 67.715 69.0748 65.9299 69.0228 64.1223C69.0067 63.5829 69 63.0437 69 62.5C69 60.8125 69.0748 59.1429 69.222 57.4959C69.6274 52.9586 70.5789 48.5773 72.0107 44.4204C79.511 22.6443 100.177 7 124.5 7C148.823 7 169.489 22.6443 176.989 44.4207C178.421 48.5775 179.372 52.9586 179.778 57.4961C179.925 59.1429 180 60.8122 180 62.5Z" fill="#63CBFF"/>
<path d="M180 62.5C180 63.0437 179.993 63.5829 179.977 64.1218C178.464 64.9533 176.727 65.4244 174.881 65.4244C171.462 65.4244 168.424 63.8068 166.485 61.2948C164.544 63.8071 161.506 65.4244 158.088 65.4244C154.669 65.4244 151.63 63.8068 149.69 61.2948C147.751 63.8071 144.714 65.4244 141.293 65.4244C137.875 65.4244 134.837 63.8068 132.898 61.2948C130.956 63.8071 127.918 65.4246 124.5 65.4246C121.082 65.4246 118.044 63.8071 116.103 61.295C114.164 63.8073 111.126 65.4246 107.707 65.4246C104.287 65.4246 101.249 63.8071 99.3099 61.295C97.3709 63.8073 94.3308 65.4246 90.9125 65.4246C87.4943 65.4246 84.4563 63.8071 82.5151 61.295C80.5761 63.8073 77.5383 65.4246 74.1199 65.4246C72.2736 65.4246 70.5362 64.9535 69.023 64.1221C69.0067 63.5829 69 63.0437 69 62.5C69 60.8124 69.0748 59.1429 69.222 57.4959C69.6274 52.9585 70.5789 48.5773 72.0107 44.4204C72.6925 44.2845 73.3971 44.2121 74.1197 44.2121C77.5381 44.2121 80.5759 45.8318 82.5149 48.3416C84.4563 45.8318 87.4941 44.2121 90.9123 44.2121C94.3305 44.2121 97.3707 45.8318 99.3097 48.3416C101.249 45.8318 104.287 44.2121 107.707 44.2121C111.126 44.2121 114.163 45.8318 116.102 48.3416C118.044 45.8318 121.082 44.2121 124.5 44.2121C127.918 44.2121 130.956 45.8318 132.897 48.3416C134.836 45.8318 137.874 44.2121 141.292 44.2121C144.713 44.2121 147.751 45.8318 149.69 48.3416C151.629 45.8318 154.669 44.2121 158.087 44.2121C161.505 44.2121 164.543 45.8318 166.485 48.3416C168.424 45.8318 171.461 44.2121 174.88 44.2121C175.602 44.2121 176.307 44.2845 176.989 44.4204C178.421 48.5773 179.372 52.9583 179.778 57.4959C179.925 59.1429 180 60.8122 180 62.5Z" fill="#427A2D"/>
<path d="M180 62.5C180 63.0437 179.993 63.5829 179.977 64.1218C179.848 68.5731 179.196 72.893 178.079 77.0228C177.069 77.3399 175.995 77.5121 174.881 77.5121C171.462 77.5121 168.424 75.8924 166.485 73.3825C164.544 75.8924 161.506 77.5121 158.088 77.5121C154.669 77.5121 151.63 75.8924 149.69 73.3825C147.751 75.8924 144.714 77.5121 141.293 77.5121C137.875 77.5121 134.837 75.8924 132.898 73.3825C130.956 75.8924 127.919 77.5121 124.5 77.5121C121.082 77.5121 118.044 75.8924 116.103 73.3825C114.164 75.8924 111.126 77.5121 107.708 77.5121C104.287 77.5121 101.249 75.8924 99.3104 73.3825C97.3713 75.8924 94.3312 77.5121 90.913 77.5121C87.4947 77.5121 84.4567 75.8924 82.5156 73.3825C80.5765 75.8924 77.5388 77.5121 74.1203 77.5121C73.0058 77.5121 71.932 77.3399 70.9217 77.0228C69.8041 72.8932 69.1518 68.5733 69.0225 64.1218C69.0067 63.5829 69 63.0437 69 62.5C69 60.8124 69.0748 59.1429 69.222 57.4959C70.6875 56.7325 72.3525 56.2998 74.1197 56.2998C77.5381 56.2998 80.5759 57.9173 82.5149 60.4294C84.4563 57.9171 87.4941 56.2998 90.9123 56.2998C94.3305 56.2998 97.3707 57.9173 99.3097 60.4294C101.249 57.9171 104.287 56.2998 107.707 56.2998C111.126 56.2998 114.163 57.9173 116.102 60.4294C118.044 57.9171 121.082 56.2998 124.5 56.2998C127.918 56.2998 130.956 57.9173 132.897 60.4294C134.836 57.9171 137.874 56.2998 141.292 56.2998C144.713 56.2998 147.751 57.9173 149.69 60.4294C151.629 57.9171 154.669 56.2998 158.087 56.2998C161.505 56.2998 164.543 57.9173 166.485 60.4294C168.424 57.9171 171.461 56.2998 174.88 56.2998C176.647 56.2998 178.312 56.7325 179.778 57.4959C179.925 59.1429 180 60.8122 180 62.5Z" fill="#4C8E37"/>
<path d="M179.563 69.4726C179.241 72.0482 178.742 74.5695 178.079 77.0228C176.896 81.3993 175.191 85.5607 173.032 89.4366C170.379 88.9701 168.066 87.5156 166.485 85.4677C164.544 87.9776 161.506 89.5973 158.088 89.5973C154.669 89.5973 151.629 87.9776 149.69 85.4677C147.751 87.9776 144.713 89.5973 141.293 89.5973C137.874 89.5973 134.837 87.9776 132.898 85.4677C130.956 87.9776 127.918 89.5973 124.5 89.5973C121.082 89.5973 118.044 87.9776 116.103 85.4677C114.164 87.9776 111.126 89.5973 107.707 89.5973C104.287 89.5973 101.249 87.9776 99.3101 85.4677C97.371 87.9776 94.3309 89.5973 90.9127 89.5973C87.4944 89.5973 84.4564 87.9776 82.5152 85.4677C80.9341 87.5156 78.6211 88.9698 75.9662 89.4366C73.8098 85.5607 72.1038 81.3971 70.9214 77.0228C70.2575 74.5695 69.7593 72.0482 69.4376 69.4726C70.8511 68.775 72.4392 68.3852 74.12 68.3852C77.5385 68.3852 80.5762 70.0027 82.5152 72.5147C84.4567 70.0025 87.4944 68.3852 90.9127 68.3852C94.3309 68.3852 97.371 70.0027 99.3101 72.5147C101.249 70.0025 104.287 68.3852 107.707 68.3852C111.126 68.3852 114.164 70.0027 116.103 72.5147C118.044 70.0025 121.082 68.3852 124.5 68.3852C127.918 68.3852 130.956 70.0027 132.898 72.5147C134.837 70.0025 137.874 68.3852 141.293 68.3852C144.713 68.3852 147.751 70.0027 149.69 72.5147C151.629 70.0025 154.669 68.3852 158.088 68.3852C161.506 68.3852 164.544 70.0027 166.485 72.5147C168.424 70.0025 171.462 68.3852 174.88 68.3852C176.561 68.3852 178.149 68.775 179.563 69.4726Z" fill="#69AF54"/>
<path d="M72.4805 81.881C80.342 102.975 100.666 118 124.5 118C148.334 118 168.658 102.975 176.52 81.881H72.4805Z" fill="#427A2D"/>
<path d="M141.098 115.477C137.349 116.65 133.428 117.436 129.384 117.787C127.773 117.928 126.145 118 124.5 118C122.855 118 121.227 117.928 119.616 117.787C118.524 117.692 117.441 117.565 116.368 117.407C113.466 116.983 110.639 116.333 107.902 115.477L108.387 107.045L110.031 78.4819L110.306 73.736H138.694L138.968 78.4819L139.261 83.5517L140.063 97.4674L140.613 107.045L141.098 115.477Z" fill="#E2BA58"/>
<path d="M150.595 39.2681L149.385 48.0726L147.951 58.5133L147.933 58.6454C146.776 67.0681 141.316 74.2816 133.522 77.6836L129.397 79.4845C126.274 80.8488 122.725 80.8488 119.602 79.4845L115.477 77.6836C107.682 74.2816 102.222 67.0684 101.065 58.6454L101.048 58.5133L99.6137 48.07L98.404 39.2678C97.6432 33.7233 100.739 28.3656 105.927 26.2583L108.503 25.211L111.448 24.0162C119.817 20.6166 129.182 20.6166 137.553 24.0162L140.496 25.211L143.075 26.2585C148.26 28.3662 151.358 33.7237 150.595 39.2681Z" fill="#E2BA58"/>
<path d="M138.969 78.4819C137.324 79.7911 135.498 80.8989 133.523 81.762L129.395 83.5629C127.835 84.2448 126.167 84.5845 124.5 84.5845C122.831 84.5845 121.163 84.2448 119.603 83.5629C118.522 83.0918 117.308 83.8619 117.276 85.04L116.601 109.127L116.368 117.407C113.466 116.983 110.639 116.333 107.902 115.477C107.902 115.477 107.902 115.477 107.9 115.477L108.387 107.045L110.032 78.4819L110.306 73.736H138.695L138.969 78.4819Z" fill="#CEA44A"/>
<path d="M121.051 79.4841C122.151 80.1674 123.325 80.5067 124.5 80.5067C122.832 80.5067 121.163 80.1676 119.601 79.4841L115.476 77.6834C107.682 74.2814 102.222 67.0681 101.065 58.6451L101.047 58.5129L99.6132 48.0696L98.4035 39.2674C97.6428 33.7228 100.738 28.3651 105.926 26.2574L108.503 25.2099L111.448 24.0151C115.631 22.3165 120.066 21.466 124.501 21.466C121.378 21.466 118.255 22.3167 115.309 24.0151L113.234 25.2099L111.421 26.2574C107.767 28.3651 105.589 33.7226 106.123 39.2674L106.976 48.0696L107.986 58.5129L107.998 58.6451C108.811 67.0679 112.657 74.2814 118.145 77.6834L121.051 79.4841Z" fill="#CEA44A"/>
<path d="M137.061 64.3595C137.061 65.2225 136.941 66.1754 136.717 67.1731C135.4 73.0519 130.429 80.5071 124.5 80.5071C118.572 80.5071 113.601 73.0519 112.284 67.1731C112.06 66.1754 111.94 65.2225 111.94 64.3595C111.94 61.5459 113.199 58.9868 115.262 57.0688C117.714 54.789 118.936 51.4618 118.654 48.1244C118.367 44.7274 117.622 40.8988 116.05 36.9702C114.676 33.5333 112.671 30.0165 109.79 26.6468C109.381 26.1629 108.952 25.684 108.503 25.2101C110.75 24.3021 112.055 21.9425 111.623 19.5606L109.967 10.3794C109.935 10.2073 109.92 10.0352 109.92 9.86562C109.92 8.5037 110.892 7.29658 112.279 7.04704C113.838 6.76521 115.33 7.8002 115.611 9.35918L116.379 13.6119C116.734 15.5774 117.766 17.2734 119.208 18.4779C120.649 19.6826 122.505 20.3959 124.5 20.3959C128.491 20.3959 131.911 17.54 132.619 13.6117L133.387 9.35897C133.637 7.97277 134.846 7 136.205 7C136.375 7 136.547 7.01496 136.719 7.04726C138.278 7.3265 139.313 8.82088 139.031 10.3794L137.375 19.5606C136.946 21.9425 138.248 24.3021 140.493 25.2101C140.495 25.2101 140.495 25.2101 140.495 25.2101C133.332 32.8125 130.918 41.3276 130.344 48.1218C130.062 51.459 131.284 54.7888 133.738 57.0686C135.801 58.9842 137.061 61.5459 137.061 64.3595Z" fill="#CC9221"/>
<path d="M104.474 34.6897C95.5157 37.4131 85.6182 33.4093 81.2227 24.7752L80.4047 23.1694L78.7035 19.8298C77.5378 17.5413 78.8288 14.7496 81.3352 14.1888C89.9024 12.2721 99.0091 16.2947 103.181 24.4777L106.142 30.2946C106.141 30.2948 105.394 34.4103 104.474 34.6897Z" fill="#CEA44A"/>
<path d="M104.208 32.7811C104.108 32.8338 104.008 32.8812 103.905 32.9278C98.2796 35.5973 91.5125 33.3153 88.6694 27.731L88.1896 26.789L87.2984 25.0395C86.5537 23.5776 87.394 21.7849 89.0031 21.4651C93.9488 20.482 99.145 22.8422 101.548 27.5565L104.208 32.7811Z" fill="#9B6511"/>
<path d="M141.284 33.3855C141.454 33.4752 141.626 33.5561 141.801 33.6359C151.392 38.1869 162.929 34.2965 167.776 24.7756L168.594 23.1698L170.295 19.8302C171.461 17.5417 170.17 14.75 167.663 14.1892C159.096 12.2725 149.99 16.2952 145.818 24.4782L141.284 33.3855Z" fill="#E2BA58"/>
<path d="M144.791 32.7811C144.89 32.8338 144.991 32.8812 145.094 32.9278C150.719 35.5973 157.486 33.3153 160.329 27.731L160.809 26.789L161.7 25.0395C162.445 23.5776 161.605 21.7849 159.996 21.4651C155.05 20.482 149.854 22.8422 147.451 27.5565L144.791 32.7811Z" fill="#9B6511"/>
<path d="M143.589 53.5948C140.904 53.5948 138.72 51.4106 138.72 48.7258C138.72 46.5281 140.201 44.5949 142.321 44.0246C142.736 43.9131 143.163 43.8568 143.589 43.8568C146.274 43.8568 148.458 46.041 148.458 48.7258C148.458 49.1518 148.402 49.578 148.29 49.9923C147.72 52.1141 145.787 53.5948 143.589 53.5948Z" fill="#CEA44A"/>
<path d="M105.411 53.5948C102.727 53.5948 100.542 51.4106 100.542 48.7258C100.542 46.5281 102.024 44.5949 104.144 44.0246C104.559 43.9131 104.985 43.8568 105.411 43.8568C108.096 43.8568 110.28 46.041 110.28 48.7258C110.28 49.1518 110.224 49.578 110.113 49.9923C109.542 52.1141 107.609 53.5948 105.411 53.5948Z" fill="#CEA44A"/>
<path d="M146.226 47.7116C146.226 47.949 146.194 48.1804 146.135 48.3993C145.833 49.5232 144.808 50.3488 143.589 50.3488C142.132 50.3488 140.952 49.1681 140.952 47.7114C140.952 46.4922 141.777 45.4676 142.901 45.1654C143.12 45.1064 143.351 45.0741 143.589 45.0741C145.046 45.0741 146.226 46.2548 146.226 47.7116Z" fill="#0F0F0E"/>
<path d="M105.413 50.3494C106.869 50.3494 108.05 49.1687 108.05 47.7121C108.05 46.2555 106.869 45.0748 105.413 45.0748C103.956 45.0748 102.775 46.2555 102.775 47.7121C102.775 49.1687 103.956 50.3494 105.413 50.3494Z" fill="#0F0F0E"/>
<path d="M146.226 47.7116C146.226 47.949 146.194 48.1804 146.135 48.3993C145.825 48.5435 145.475 48.6246 145.11 48.6246C143.765 48.6246 142.676 47.5352 142.676 46.19C142.676 45.8249 142.757 45.4758 142.901 45.1654C143.12 45.1064 143.351 45.0741 143.589 45.0741C145.046 45.0741 146.226 46.2548 146.226 47.7116Z" fill="#E6E6E6"/>
<path d="M108.049 47.7116C108.049 47.949 108.016 48.1804 107.957 48.3993C107.647 48.5435 107.298 48.6246 106.933 48.6246C105.587 48.6246 104.498 47.5352 104.498 46.19C104.498 45.8249 104.579 45.4758 104.723 45.1654C104.942 45.1064 105.174 45.0741 105.411 45.0741C106.868 45.0741 108.049 46.2548 108.049 47.7116Z" fill="#E6E6E6"/>
<path d="M136.719 7.0465C133.307 7.85711 134.644 18.3728 133.646 20.3956C132.649 22.4185 124.5 20.3956 124.5 20.3956C128.491 20.3956 131.911 17.5397 132.619 13.6113L133.387 9.35864C133.636 7.97179 134.846 6.99902 136.205 6.99902C136.375 6.99924 136.547 7.0142 136.719 7.0465Z" fill="#B77D19"/>
<path d="M118.806 59.3348C119.764 57.0688 122.821 55.5799 127.618 55.5799C132.415 55.5799 125.258 50.3494 120.26 53.7091" fill="#B77D19"/>
<path d="M125.498 26.1224C126.838 24.7819 124.082 23.5408 119.616 23.6C117.456 23.6286 115.504 22.3252 114.75 20.3012C113.561 17.1078 111.976 12.6701 111.613 10.8089C111.031 7.81584 112.279 7.04773 112.279 7.04773C110.892 7.29705 109.919 8.50439 109.919 9.86631C109.919 10.0361 109.934 10.208 109.966 10.3801L111.622 19.5612C112.054 21.943 110.75 24.3024 108.503 25.2105L108.502 25.2108C108.814 25.5414 109.113 25.8739 109.407 26.208C109.535 26.3544 109.665 26.5003 109.789 26.6475L109.793 26.6486C115.929 33.8347 118.092 41.6691 118.645 48.0197C118.938 51.3929 117.74 54.7641 115.261 57.0697C113.199 58.9877 111.939 61.5466 111.939 64.3597C111.939 65.2228 112.059 66.1756 112.283 67.1733C113.6 73.0522 118.571 80.5074 124.5 80.5074C121.459 80.5074 118.91 73.0522 118.234 67.1733C118.12 66.1756 118.06 65.2228 118.06 64.3597C118.06 61.5461 118.706 58.9871 119.763 57.0691C121.02 54.7892 121.646 51.462 121.502 48.1247C121.295 43.3434 120.001 35.8572 117.974 29.1901L117.974 29.1914C116.965 26.1224 123.765 27.8552 125.498 26.1224Z" fill="#B77D19"/>
<path d="M131.853 66.3186C131.853 67.6656 130.761 70.531 129.414 70.531C128.067 70.531 126.976 67.6654 126.976 66.3186C126.976 64.9719 128.067 63.8799 129.414 63.8799C130.761 63.8799 131.853 64.9717 131.853 66.3186Z" fill="#9B6511"/>
<path d="M122.024 66.3186C122.024 67.6656 120.933 70.531 119.586 70.531C118.239 70.531 117.147 67.6654 117.147 66.3186C117.147 64.9719 118.239 63.8799 119.586 63.8799C120.933 63.8797 122.024 64.9717 122.024 66.3186Z" fill="#9B6511"/>
<path d="M140.063 97.4672C138.198 97.2226 136.61 95.9268 136.019 94.1031L134.97 90.8796C134.311 88.8476 135.034 86.623 136.762 85.3658L139.261 83.5512L140.063 97.4672Z" fill="#CC9221"/>
<path d="M127.397 107.945L131.782 104.758C133.51 103.503 134.233 101.278 133.573 99.2466L131.898 94.0912C131.238 92.0598 129.345 90.6847 127.21 90.6847H121.789C119.654 90.6847 117.761 92.06 117.101 94.0912L115.426 99.2466C114.765 101.278 115.488 103.503 117.217 104.758L121.602 107.945C123.33 109.2 125.669 109.2 127.397 107.945Z" fill="#CC9221"/>
<path d="M141.098 115.476C137.349 116.65 133.428 117.436 129.384 117.787C129.418 117.617 129.463 117.447 129.518 117.28L131.738 110.45C132.397 108.42 134.291 107.045 136.427 107.045H140.613L141.098 115.476Z" fill="#CC9221"/>
<path d="M114.03 90.8798L112.981 94.1034C112.39 95.9268 110.802 97.2226 108.938 97.4674L109.739 83.5516L112.238 85.3662C113.966 86.6232 114.689 88.8478 114.03 90.8798Z" fill="#CC9221"/>
<path d="M119.616 117.787C118.524 117.692 117.441 117.565 116.368 117.407C113.466 116.983 110.639 116.333 107.902 115.476L108.387 107.045H112.573C114.202 107.045 115.692 107.845 116.601 109.127C116.882 109.523 117.106 109.97 117.262 110.45L119.482 117.28C119.537 117.447 119.582 117.617 119.616 117.787Z" fill="#CC9221"/>
</g>
</g>
<defs>
<clipPath id="clip0">
<rect width="250" height="250" fill="white"/>
</clipPath>
<clipPath id="clip1">
<rect width="111" height="111" fill="white" transform="translate(69 7)"/>
</clipPath>
</defs>
</svg>
