<svg width="250" height="250" viewBox="0 0 250 250" fill="none" xmlns="http://www.w3.org/2000/svg">
<g clip-path="url(#clip0)">
<path d="M125 73.0244L115.234 137.375L125 250L222.066 217.824V105.2L125 73.0244Z" fill="#C48958"/>
<path d="M27.9341 105.2V217.824L125 250V73.0244L27.9341 105.2Z" fill="#E3A76F"/>
<path d="M97.0659 181.747L125 137.375L27.9341 105.2L0 149.571L97.0659 181.747Z" fill="#F2D1A5"/>
<path d="M152.934 181.747L125 137.375L222.066 105.2L250 149.571L152.934 181.747Z" fill="#E3A76F"/>
<path d="M181 62.5C181 93.1523 156.152 118 125.5 118C94.8477 118 70 93.1523 70 62.5C70 31.8477 94.8477 7 125.5 7C156.152 7 181 31.8477 181 62.5Z" fill="#FF6E2E"/>
<path d="M181 62.5C181 68.1478 180.156 73.598 178.587 78.7318C177.497 82.3022 176.057 85.7194 174.306 88.9449C172.517 92.2402 170.403 95.3319 168.007 98.1826C167.881 98.3324 167.756 98.4816 167.628 98.6288C157.451 110.488 142.352 118 125.5 118C108.648 118 93.5487 110.488 83.3744 98.6288C83.2467 98.4798 83.1188 98.33 82.995 98.18C80.5968 95.3319 78.483 92.2402 76.6971 88.9449C75.984 87.6374 75.3243 86.2978 74.7197 84.9274C71.6845 78.0704 70 70.4825 70 62.5C70 52.4799 72.6558 43.0815 77.3017 34.9668C86.867 51.6753 104.87 62.9336 125.5 62.9336C146.13 62.9336 164.136 51.6753 173.698 34.9668C178.344 43.0815 181 52.4799 181 62.5Z" fill="#FF5233"/>
<path d="M174.336 88.884C172.784 91.7507 170.99 94.4648 168.976 96.9987C167.147 99.3039 165.135 101.458 162.967 103.443C153.094 112.483 139.941 118 125.5 118C111.059 118 97.9059 112.483 88.0332 103.443C85.8652 101.458 83.8529 99.3039 82.0238 96.9987C80.01 94.4648 78.2162 91.7507 76.6639 88.884H174.336Z" fill="#303A59"/>
<path d="M125.5 50.7548H142.462V78.3704H119.893L125.5 50.7548Z" fill="#5B3364"/>
<path d="M142.462 74.165L138.256 88.884H125.5L119.893 74.165H142.462Z" fill="#FF1A69"/>
<path d="M161.386 62.8454V88.884H149.821L145.616 58.64L161.386 62.8454Z" fill="#FF4377"/>
<path d="M138.256 62.8454H149.821V88.884H138.256V62.8454Z" fill="#FFBE9F"/>
<path d="M155.604 68.628C152.41 68.628 149.821 66.0392 149.821 62.8456L145.616 50.7551L161.386 54.9605V62.8456C161.386 66.039 158.797 68.628 155.604 68.628V68.628Z" fill="#AD2666"/>
<path d="M144.039 68.628C140.845 68.628 138.256 66.0392 138.256 62.8456V50.7551H149.821V62.8456C149.821 66.039 147.232 68.628 144.039 68.628V68.628Z" fill="#FF1A69"/>
<path d="M127.603 17.3642L125.5 29.9805H140.219V17.3642H127.603Z" fill="#26ABFF"/>
<path d="M125.5 50.7548H108.538V78.3704L125.5 74.165V50.7548Z" fill="#AD2666"/>
<path d="M108.538 74.165L112.744 88.884H125.5V74.165H108.538Z" fill="#FF5233"/>
<path d="M89.6138 62.8454V88.884H101.179L105.384 58.64L89.6138 62.8454Z" fill="#FF6C84"/>
<path d="M101.179 62.8454H112.743V88.884H101.179V62.8454Z" fill="#FFE7AD"/>
<path d="M95.3962 68.628C98.5899 68.628 101.179 66.0392 101.179 62.8456L105.384 50.7551L89.6138 54.9605V62.8456C89.6138 66.039 92.2028 68.628 95.3962 68.628V68.628Z" fill="#FF1A69"/>
<path d="M106.961 68.628C110.155 68.628 112.744 66.0392 112.744 62.8456V50.7551H101.179V62.8456C101.179 66.039 103.768 68.628 106.961 68.628Z" fill="#FF4377"/>
<path d="M125.5 33.8861L89.6138 54.9603H112.744L122.696 50.7549L125.5 33.8861Z" fill="#FF6C84"/>
<path d="M128.304 50.7549L138.256 54.9603H161.386L125.5 33.8861L128.304 50.7549Z" fill="#FF4377"/>
<path d="M125.5 54.9603H138.256L125.5 33.8861L121.294 44.4233L125.5 54.9603Z" fill="#FFE7AD"/>
<path d="M125.5 33.8861L112.744 54.9603H125.5V33.8861Z" fill="white"/>
<path d="M127.603 17.238H125.5L124.098 26.1794L125.5 35.121H127.603V17.238Z" fill="#FFBE46"/>
<path d="M123.397 17.238H125.5V35.121H123.397V17.238Z" fill="#FFD567"/>
</g>
<defs>
<clipPath id="clip0">
<rect width="250" height="250" fill="white"/>
</clipPath>
</defs>
</svg>
