<svg width="64" height="64" viewBox="0 0 64 64" fill="none" xmlns="http://www.w3.org/2000/svg">
<path d="M48.4311 22.3806C48.5129 22.3806 48.5129 22.3806 48.5129 22.299L48.7584 21.5646L49.4947 21.4013C49.4947 21.4013 49.5765 21.4013 49.5765 21.3197V21.2381L49.0038 20.7485V20.014C49.0038 20.014 49.0038 19.9324 48.922 19.9324H48.8402L48.1857 20.3405L47.4494 20.0956H47.3676V20.1772L47.613 20.9117L47.1222 21.4829V21.5646L47.204 21.6462H47.9403L48.3493 22.299C48.3493 22.3806 48.3493 22.3806 48.4311 22.3806Z" fill="#333333"/>
<path d="M54.2396 38.8652V38.1307C54.2396 38.1307 54.2396 38.0491 54.1578 38.0491H54.076L53.4215 38.4571L52.6852 38.2123H52.6034V38.2939L52.8489 39.0284L52.358 39.5996V39.6812L52.4398 39.7628H53.1761L53.5852 40.4157L53.667 40.4973C53.667 40.4973 53.7488 40.4973 53.7488 40.4157L53.9942 39.6812L54.7305 39.518C54.7305 39.518 54.8123 39.518 54.8123 39.4364V39.3548L54.2396 38.8652Z" fill="#333333"/>
<path d="M49.8219 30.4597V29.7252C49.8219 29.7252 49.8219 29.6436 49.7401 29.6436H49.6583L49.0038 30.0516L48.4311 29.8068H48.3493V29.8884L48.5947 30.6229L48.1039 31.1941V31.2757L48.1857 31.3573H48.922L49.331 32.0102L49.4128 32.0918C49.4128 32.0918 49.4947 32.0918 49.4947 32.0102L49.7401 31.2757L50.4764 31.1125C50.4764 31.1125 50.5582 31.1125 50.5582 31.0309V30.9493L49.8219 30.4597Z" fill="#333333"/>
<path d="M44.5862 20.1299C45.107 19.8589 45.309 19.2182 45.0374 18.6986C44.7658 18.1791 44.1234 17.9776 43.6026 18.2485C43.0818 18.5194 42.8798 19.1602 43.1514 19.6797C43.423 20.1993 44.0653 20.4008 44.5862 20.1299Z" fill="#333333"/>
<path d="M49.8901 26.7467C50.4109 26.4757 50.6129 25.835 50.3413 25.3154C50.0697 24.7959 49.4273 24.5944 48.9065 24.8653C48.3857 25.1362 48.1837 25.777 48.4553 26.2965C48.7269 26.8161 49.3692 27.0176 49.8901 26.7467Z" fill="#333333"/>
<path d="M55.0681 34.6822C55.589 34.4113 55.791 33.7705 55.5194 33.251C55.2478 32.7315 54.6054 32.5299 54.0846 32.8009C53.5638 33.0718 53.3617 33.7126 53.6333 34.2321C53.9049 34.7516 54.5473 34.9532 55.0681 34.6822Z" fill="#333333"/>
<path d="M58.976 41.7859C59.4968 41.515 59.6989 40.8742 59.4273 40.3547C59.1557 39.8351 58.5133 39.6336 57.9925 39.9045C57.4716 40.1755 57.2696 40.8162 57.5412 41.3358C57.8128 41.8553 58.4552 42.0568 58.976 41.7859Z" fill="#333333"/>
<path d="M49.6583 14.9544C49.2492 14.1383 48.5129 13.5671 47.6948 13.3223C46.7949 12.9959 45.895 13.0775 45.1587 13.4855L43.6043 14.3016L42.7862 12.6694C43.8498 9.64998 43.6861 7.28339 42.3772 5.56965C39.7593 2.14217 33.5417 2.71342 33.2963 2.79503C32.8872 2.79503 32.56 3.12145 32.56 3.52949C32.56 3.93752 32.8054 4.26395 33.1326 4.34555C33.1326 4.34555 34.5234 4.9168 35.2597 8.50749C35.996 12.0166 39.2684 13.2407 41.3136 13.4039L42.2136 15.1176L40.6592 15.9337C39.023 16.8314 38.3685 18.8715 39.1866 20.5037L53.0125 46.9442C53.4215 47.7603 54.1578 48.3315 54.9759 48.5763C55.3032 48.6579 55.6304 48.7396 56.0395 48.7396C56.6121 48.7396 57.103 48.5763 57.5938 48.3315L62.1752 45.9649C63.8114 45.0673 64.4659 43.0271 63.6478 41.395L49.6583 14.9544ZM36.8141 8.18106C36.405 6.38572 35.9142 5.16162 35.3415 4.34555C37.1413 4.42716 39.6774 4.9168 40.9864 6.54893C41.7227 7.52821 41.9681 8.91552 41.6409 10.5477L41.15 9.56838C40.9046 9.16034 40.4137 8.99713 40.0865 9.24195C39.6774 9.48677 39.5138 9.97641 39.7593 10.3028L40.3319 11.4453C38.9411 11.2005 37.3049 10.3844 36.8141 8.18106ZM61.3571 44.496L56.7757 46.8626C56.3667 47.1074 55.8758 47.1074 55.4668 46.9442C55.0577 46.781 54.6487 46.5362 54.4033 46.1281L40.5774 19.6876C40.1683 18.8715 40.4955 17.8106 41.3136 17.321L45.895 14.9544C46.1404 14.7912 46.3859 14.7912 46.7131 14.7912C46.8767 14.7912 47.0403 14.7912 47.2858 14.8728C47.6948 15.036 48.1039 15.2808 48.3493 15.6889L62.1752 42.1294C62.5025 43.0271 62.1752 44.088 61.3571 44.496Z" fill="#333333"/>
<path d="M32.4782 35.5193L32.6418 36.2537C32.6418 36.2537 32.6418 36.3354 32.7236 36.3354H32.8054L33.2963 35.7641L34.0325 35.8457C34.1144 35.8457 34.1144 35.8457 34.1144 35.7641V35.6825L33.7871 35.0296L34.1144 34.3768V34.2952H34.0325L33.2963 34.4584L32.7236 33.9688H32.6418L32.56 34.0504L32.4782 34.7848L31.8237 35.0296L31.7419 35.1112C31.7419 35.1112 31.7419 35.1929 31.8237 35.1929L32.4782 35.5193Z" fill="#333333"/>
<path d="M32.56 53.7992L32.8872 53.1463V53.0647H32.8054L32.0691 53.1463L31.4964 52.6567H31.4146L31.3328 52.7383L31.251 53.4727L30.5965 53.8808L30.5147 53.9624C30.5147 53.9624 30.5147 54.044 30.5965 54.044L31.3328 54.2888L31.4964 55.0233C31.4964 55.0233 31.4964 55.1049 31.5782 55.1049H31.6601L32.1509 54.5336L32.8872 54.6152C32.969 54.6152 32.969 54.6152 32.969 54.5336V54.452L32.56 53.7992Z" fill="#333333"/>
<path d="M31.6601 45.2305C31.7419 45.2305 31.7419 45.2305 31.7419 45.1489V45.0673L31.3328 44.4144L31.6601 43.7616V43.6799H31.5782L30.842 43.8432L30.2693 43.3535H30.1875L30.1057 43.4351L30.0239 44.1696L29.3694 44.5776L29.2876 44.6592C29.2876 44.6592 29.2876 44.7408 29.3694 44.7408L30.1057 44.9856L30.2693 45.7201C30.2693 45.7201 30.2693 45.8017 30.3511 45.8017H30.4329L30.9238 45.2305H31.6601Z" fill="#333333"/>
<path d="M29.915 32.8923C30.4971 32.814 30.9053 32.2798 30.8268 31.6992C30.7483 31.1185 30.2127 30.7113 29.6306 30.7897C29.0486 30.868 28.6403 31.4022 28.7189 31.9828C28.7974 32.5635 29.3329 32.9707 29.915 32.8923Z" fill="#333333"/>
<path d="M32.6182 40.9777C33.2003 40.8994 33.6085 40.3652 33.53 39.7846C33.4515 39.2039 32.9159 38.7967 32.3338 38.8751C31.7517 38.9534 31.3435 39.4876 31.4221 40.0682C31.5006 40.6489 32.0361 41.0561 32.6182 40.9777Z" fill="#333333"/>
<path d="M34.8236 50.1175C35.4057 50.0391 35.8139 49.5049 35.7354 48.9243C35.6568 48.3436 35.1213 47.9364 34.5392 48.0148C33.9571 48.0931 33.5489 48.6273 33.6275 49.208C33.706 49.7886 34.2415 50.1958 34.8236 50.1175Z" fill="#333333"/>
<path d="M36.1353 58.1906C36.7174 58.1123 37.1256 57.5781 37.0471 56.9974C36.9685 56.4168 36.433 56.0096 35.8509 56.0879C35.2688 56.1663 34.8606 56.7005 34.9391 57.2811C35.0177 57.8618 35.5532 58.269 36.1353 58.1906Z" fill="#333333"/>
<path d="M32.7236 18.4635C31.4146 14.3832 25.4425 12.8326 25.1971 12.751C24.788 12.6694 24.379 12.8326 24.2153 13.2407C24.0517 13.5671 24.1335 14.0567 24.5426 14.22C24.5426 14.22 25.6061 15.2808 25.1152 18.8715C24.6244 22.4622 27.2423 24.6656 29.1239 25.4817L29.3694 27.3586L27.5695 27.6034C25.6879 27.8483 24.379 29.562 24.7062 31.439L28.7149 61.0622C28.7967 61.9598 29.2876 62.7759 30.0238 63.2655C30.5965 63.7552 31.3328 64 32.0691 64C32.2327 64 32.3963 64 32.56 64L37.6322 63.3471C39.5138 63.1023 40.8228 61.3886 40.4955 59.5116L36.4868 29.8884C36.405 28.9908 35.9142 28.1747 35.1779 27.685C34.4416 27.1138 33.5417 26.869 32.6418 27.0322L30.9238 27.277L30.6783 25.4817C32.7236 22.8703 33.3781 20.5037 32.7236 18.4635ZM32.8872 28.5011C32.969 28.5011 33.0508 28.5011 33.1326 28.5011C33.5417 28.5011 33.8689 28.6643 34.1962 28.8275C34.6052 29.0724 34.7688 29.4804 34.8506 29.97L38.8593 59.5932C39.023 60.5725 38.2867 61.3886 37.3868 61.5518L32.3145 62.2047C31.8237 62.2863 31.4146 62.123 31.0056 61.8782C30.5965 61.6334 30.4329 61.2254 30.3511 60.7357L26.3424 31.1125C26.1788 30.1332 26.9151 29.3172 27.815 29.154L32.8872 28.5011ZM26.6696 19.0347C26.9151 17.2394 26.8333 15.8521 26.5878 14.9544C28.224 15.6889 30.5147 16.913 31.1692 18.9531C31.5782 20.1772 31.251 21.4829 30.4329 22.9519L30.2693 21.891C30.1875 21.4829 29.7784 21.1565 29.3694 21.1565C28.9603 21.2381 28.6331 21.6462 28.6331 22.0542L28.7967 23.3599C27.6514 22.6254 26.3424 21.2381 26.6696 19.0347Z" fill="#333333"/>
<path d="M14.0709 23.3599V23.4415L14.5617 24.0127L14.3981 24.7472V24.8288H14.4799L15.1344 24.5024L15.7889 24.9104C15.7889 24.9104 15.7889 24.9104 15.8707 24.9104C15.8707 24.9104 15.8707 24.9104 15.9525 24.9104L16.0343 24.8288L15.9525 24.0944L16.5252 23.6047V23.5231C16.5252 23.5231 16.5252 23.4415 16.4434 23.4415L15.7071 23.2783L15.3798 22.6254L15.298 22.5438C15.298 22.5438 15.2162 22.5438 15.2162 22.6254L14.889 23.2783L14.1527 23.3599H14.0709Z" fill="#333333"/>
<path d="M5.39902 40.4973L5.2354 41.2317V41.3134H5.3172L5.97169 40.9869L6.62617 41.395C6.62617 41.395 6.62617 41.395 6.70798 41.395C6.70798 41.395 6.70798 41.395 6.78979 41.395L6.8716 41.3134L6.78979 40.5789L7.36246 40.0893V40.0076C7.36246 40.0076 7.36246 39.926 7.28065 39.926L6.54436 39.7628L6.21712 39.11L6.13531 39.0284C6.13531 39.0284 6.0535 39.0284 6.0535 39.11L5.72626 39.7628L4.98996 39.8444C4.98996 39.8444 4.90815 39.8444 4.90815 39.926C4.90815 40.0076 4.90815 40.0076 4.90815 40.0076L5.39902 40.4973Z" fill="#333333"/>
<path d="M8.34418 31.5206L8.18056 32.255V32.3366H8.26237L8.91685 32.0102L9.57133 32.4182C9.57133 32.4182 9.57133 32.4182 9.65314 32.4182C9.65314 32.4182 9.65314 32.4182 9.73495 32.4182L9.81676 32.3366L9.73495 31.6022L10.3076 31.1125V31.0309C10.3076 31.0309 10.3076 30.9493 10.2258 30.9493L9.48952 30.7861L9.16228 30.0516L9.08047 29.97C9.08047 29.97 8.99866 29.97 8.99866 30.0516L8.67142 30.7045L7.93513 30.7861C7.93513 30.7861 7.85332 30.7861 7.85332 30.8677C7.85332 30.9493 7.85332 30.9493 7.85332 30.9493L8.34418 31.5206Z" fill="#333333"/>
<path d="M14.6978 19.8456C14.8788 19.2882 14.5726 18.69 14.0138 18.5094C13.4551 18.3288 12.8554 18.6343 12.6743 19.1916C12.4933 19.749 12.7995 20.3473 13.3583 20.5278C13.9171 20.7084 14.5168 20.403 14.6978 19.8456Z" fill="#333333"/>
<path d="M13.71 28.345C13.891 27.7877 13.5848 27.1894 13.026 27.0089C12.4673 26.8283 11.8675 27.1337 11.6865 27.6911C11.5055 28.2485 11.8117 28.8467 12.3705 29.0273C12.9292 29.2079 13.529 28.9024 13.71 28.345Z" fill="#333333"/>
<path d="M11.7295 37.5498C11.9105 36.9925 11.6043 36.3942 11.0455 36.2137C10.4867 36.0331 9.88702 36.3385 9.70599 36.8959C9.52496 37.4533 9.83118 38.0515 10.3899 38.2321C10.9487 38.4127 11.5484 38.1072 11.7295 37.5498Z" fill="#333333"/>
<path d="M9.32684 45.3526C9.50787 44.7952 9.20165 44.1969 8.64288 44.0164C8.08411 43.8358 7.4844 44.1413 7.30337 44.6986C7.12234 45.256 7.42855 45.8542 7.98732 46.0348C8.54609 46.2154 9.14581 45.9099 9.32684 45.3526Z" fill="#333333"/>
<path d="M7.19884 51.1061C7.52608 51.1878 7.85332 51.2694 8.26237 51.2694C8.75323 51.2694 9.3259 51.1062 9.81676 50.8613C10.6349 50.4533 11.2075 49.7188 11.5348 48.9028L20.7793 20.5037C21.0247 19.6876 20.9429 18.7083 20.5339 17.8923C20.1248 17.0762 19.3885 16.5049 18.5704 16.1785L16.9342 15.6073L17.5069 13.8935C20.3703 12.5062 22.0065 10.7925 22.3337 8.5891C22.9064 4.34555 18.1614 0.346828 17.9978 0.183615C17.6705 -0.061205 17.2615 -0.061205 16.9342 0.183615C16.607 0.428435 16.5252 0.836468 16.7706 1.2445C16.7706 1.2445 17.2615 2.63181 15.298 5.65126C13.2528 8.6707 14.7254 11.7718 16.0343 13.4039L15.4617 15.1992L13.7436 14.628C11.9438 14.0567 10.0622 15.036 9.48952 16.8314L0.163171 45.3121C-0.4095 47.1074 0.572221 48.9844 2.37204 49.5556L7.19884 51.1061ZM16.5252 6.63054C17.5069 5.08001 17.9978 3.85591 18.2432 2.87663C19.4703 4.26395 20.9429 6.38572 20.6157 8.42588C20.4521 9.64998 19.634 10.7925 18.1614 11.6901L18.4886 10.7109C18.6523 10.3028 18.4068 9.8132 17.9978 9.64998C17.5887 9.48677 17.0979 9.73159 16.9342 10.1396L16.5252 11.5269C15.8707 10.3028 15.298 8.50749 16.5252 6.63054ZM1.71756 45.8017L10.9621 17.4026C11.2075 16.6682 11.862 16.1785 12.5983 16.1785C12.7619 16.1785 12.9255 16.1785 13.171 16.2601L18.0796 17.8106C18.4886 17.9739 18.8977 18.3003 19.0613 18.7083C19.3067 19.1164 19.3067 19.606 19.1431 20.014L9.89857 48.4131C9.73495 48.8212 9.40771 49.2292 8.99866 49.3924C8.58961 49.6372 8.09875 49.6372 7.6897 49.474L2.78109 47.9235C1.88118 47.6787 1.39032 46.6994 1.71756 45.8017Z" fill="#333333"/>
</svg>
