<svg width="64" height="64" viewBox="0 0 64 64" fill="none" xmlns="http://www.w3.org/2000/svg">
<path d="M52.2389 17.4956C49.6907 17.4956 47.6325 19.3773 47.6325 21.707V59.7886C47.6325 62.1183 49.6907 64 52.2389 64H59.3936C61.9418 64 64 62.1183 64 59.7886V21.6174C64 19.2877 61.9418 17.406 59.3936 17.406H56.9433V16.5099C57.0413 16.5099 57.0413 16.4203 57.1394 16.4203C60.1776 13.3738 61.3538 10.5065 60.5697 7.72877C59.0995 2.53174 50.9648 0.112438 50.5727 0.0228341C50.1807 -0.0667698 49.6907 0.112438 49.3966 0.470854C49.1026 0.829269 49.2986 1.27729 49.5926 1.6357C49.5926 1.6357 51.1608 2.97976 50.0827 7.72877C49.2006 12.0298 52.4349 14.8971 54.8851 16.2411V17.4956H52.2389ZM52.1409 8.08718C52.6309 5.57827 52.6309 3.8758 52.3369 2.62135C54.5911 3.60699 57.9234 5.48867 58.8055 8.26639C59.2956 9.96886 58.7075 11.8505 57.0413 13.9114V10.8649C57.0413 10.3273 56.6493 9.96886 56.0613 9.96886C55.4732 9.96886 55.0812 10.3273 55.0812 10.8649V14.0906C53.513 13.0154 51.5528 11.1337 52.1409 8.08718ZM62.0398 21.6174V59.7886C62.0398 61.1327 60.8637 62.2079 59.3936 62.2079H52.2389C50.7688 62.2079 49.5926 61.1327 49.5926 59.7886V21.6174C49.5926 20.2733 50.7688 19.1981 52.2389 19.1981H59.3936C60.8637 19.2877 62.0398 20.3629 62.0398 21.6174Z" fill="#333333"/>
<path d="M28.5207 17.4956C25.9724 17.4956 23.9142 19.3773 23.9142 21.707V59.7886C23.9142 62.1183 25.9724 64 28.5207 64H35.6753C38.2236 64 40.2818 62.1183 40.2818 59.7886V21.6174C40.2818 19.2877 38.2236 17.406 35.6753 17.406H33.2251V16.5099C33.3231 16.5099 33.3231 16.4203 33.4211 16.4203C36.4594 13.3738 37.6355 10.5065 36.8515 7.72877C35.3813 2.53174 27.2466 0.112438 26.8545 0.0228341C26.4625 -0.0667698 25.9724 0.112438 25.6784 0.470854C25.3844 0.829269 25.5804 1.27729 25.8744 1.6357C25.8744 1.6357 27.4426 2.97976 26.3645 7.72877C25.4824 12.0298 28.7167 14.8971 31.1669 16.2411V17.4956H28.5207ZM28.4227 8.08718C28.9127 5.57827 28.9127 3.8758 28.6187 2.62135C30.8729 3.60699 34.2052 5.48867 35.0873 8.26639C35.5773 9.96886 34.9893 11.8505 33.3231 13.9114V10.8649C33.3231 10.3273 32.9311 9.96886 32.343 9.96886C31.755 9.96886 31.3629 10.3273 31.3629 10.8649V14.0906C29.7948 13.0154 27.8346 11.1337 28.4227 8.08718ZM35.2833 21.0797C35.2833 21.7966 34.5972 22.4238 33.8132 22.4238C33.0291 22.4238 32.343 21.7966 32.343 21.0797C32.343 20.3629 33.0291 19.7357 33.8132 19.7357C34.5972 19.7357 35.2833 20.3629 35.2833 21.0797ZM30.6769 60.0574C30.6769 59.3406 31.3629 58.7134 32.147 58.7134C32.9311 58.7134 33.6172 59.3406 33.6172 60.0574C33.6172 60.7743 32.9311 61.4015 32.147 61.4015C31.3629 61.4015 30.6769 60.7743 30.6769 60.0574ZM38.3216 21.6174V37.8357C37.8315 37.5669 37.1455 37.3876 36.4594 37.3876C34.5972 37.3876 33.0291 38.8213 33.0291 40.5238C33.0291 42.2263 34.5972 43.6599 36.4594 43.6599C37.1455 43.6599 37.7335 43.4807 38.3216 43.2119V59.7886C38.3216 61.1327 37.1455 62.2079 35.6753 62.2079H34.6953C35.2833 61.6703 35.5773 60.9535 35.5773 60.147C35.5773 58.4446 34.0092 57.0109 32.147 57.0109C30.2848 57.0109 28.7167 58.4446 28.7167 60.147C28.7167 60.9535 29.1087 61.6703 29.5988 62.2079H28.5207C27.0505 62.2079 25.8744 61.1327 25.8744 59.7886V21.6174C25.8744 20.2733 27.0505 19.1981 28.5207 19.1981H31.0689C30.6769 19.7357 30.3828 20.3629 30.3828 21.0797C30.3828 22.7822 31.951 24.2159 33.8132 24.2159C35.6753 24.2159 37.2435 22.7822 37.2435 21.0797C37.2435 20.4525 37.0475 19.9149 36.7534 19.3773C37.6355 19.8253 38.3216 20.6317 38.3216 21.6174ZM38.0276 40.4342C38.0276 41.151 37.3415 41.7782 36.5574 41.7782C35.7734 41.7782 35.0873 41.151 35.0873 40.4342C35.0873 39.7174 35.7734 39.0901 36.5574 39.0901C37.3415 39.0901 38.0276 39.7174 38.0276 40.4342Z" fill="#333333"/>
<path d="M30.0888 27.5312C28.2266 27.5312 26.6585 28.9649 26.6585 30.6674C26.6585 32.3698 28.2266 33.8035 30.0888 33.8035C31.951 33.8035 33.5191 32.3698 33.5191 30.6674C33.5191 28.9649 31.951 27.5312 30.0888 27.5312ZM30.0888 32.0114C29.3047 32.0114 28.6187 31.3842 28.6187 30.6674C28.6187 29.9505 29.3047 29.3233 30.0888 29.3233C30.8729 29.3233 31.559 29.9505 31.559 30.6674C31.559 31.3842 30.8729 32.0114 30.0888 32.0114Z" fill="#333333"/>
<path d="M30.3828 45.1832C28.5207 45.1832 26.9525 46.6168 26.9525 48.3193C26.9525 50.0218 28.5207 51.4555 30.3828 51.4555C32.245 51.4555 33.8132 50.0218 33.8132 48.3193C33.8132 46.6168 32.245 45.1832 30.3828 45.1832ZM30.3828 49.6634C29.5988 49.6634 28.9127 49.0361 28.9127 48.3193C28.9127 47.6025 29.5988 46.9753 30.3828 46.9753C31.1669 46.9753 31.853 47.6025 31.853 48.3193C31.853 49.0361 31.1669 49.6634 30.3828 49.6634Z" fill="#333333"/>
<path d="M4.80245 64H11.9571C14.5054 64 16.5636 62.1183 16.5636 59.7886V21.6174C16.5636 19.2877 14.5054 17.406 11.9571 17.406H9.50689V16.5099C9.6049 16.5099 9.6049 16.4203 9.70291 16.4203C12.7412 13.3738 13.9173 10.5065 13.1332 7.72877C11.6631 2.53174 3.52833 0.112438 3.13629 0.0228341C2.74426 -0.0667698 2.25421 0.112438 1.96018 0.470854C1.66616 0.829269 1.86217 1.27729 2.1562 1.6357C2.1562 1.6357 3.72435 2.97976 2.64625 7.72877C1.76416 12.0298 4.99847 14.8971 7.4487 16.2411V17.4956H4.60643C2.05819 17.4956 0 19.3773 0 21.707V59.7886C0.294028 62.1183 2.35222 64 4.80245 64ZM4.70444 8.08718C5.19449 5.57827 5.19449 3.8758 4.90046 2.62135C7.15467 3.60699 10.487 5.48867 11.3691 8.26639C11.8591 9.96886 11.2711 11.8505 9.6049 13.9114V10.8649C9.6049 10.3273 9.21286 9.96886 8.62481 9.96886C8.03675 9.96886 7.64472 10.3273 7.64472 10.8649V14.0906C6.07657 13.0154 4.11638 11.1337 4.70444 8.08718ZM14.6034 42.6743C13.6233 42.8535 13.1332 43.4807 12.7412 43.8391C12.3492 44.2871 12.1531 44.4664 11.7611 44.4664C11.3691 44.4664 11.2711 44.2871 10.781 43.8391C10.291 43.3911 9.6049 42.5847 8.33078 42.5847C7.05666 42.5847 6.3706 43.3015 5.88055 43.8391C5.48851 44.2871 5.2925 44.4664 4.90046 44.4664C4.50842 44.4664 4.41041 44.2871 3.92037 43.8391C3.52833 43.3911 2.94028 42.8535 2.05819 42.6743V36.0436C2.1562 36.1332 2.25421 36.2228 2.45023 36.402C2.94028 36.85 3.62634 37.6565 4.90046 37.6565C6.17458 37.6565 6.86064 36.9396 7.35069 36.402C7.74273 35.954 7.93874 35.7748 8.33078 35.7748C8.72282 35.7748 8.82083 35.954 9.31087 36.402C9.80092 36.85 10.487 37.6565 11.7611 37.6565C13.0352 37.6565 13.7213 36.9396 14.2113 36.402C14.4073 36.2228 14.5054 36.1332 14.6034 36.0436V42.6743ZM2.25421 44.6456C2.35222 44.7352 2.45023 44.8248 2.64625 45.004C3.13629 45.452 3.82236 46.2584 5.09648 46.2584C6.3706 46.2584 7.05666 45.5416 7.54671 45.004C7.93874 44.556 8.13476 44.3768 8.5268 44.3768C8.91883 44.3768 9.01684 44.556 9.50689 45.004C9.99693 45.452 10.683 46.2584 11.9571 46.2584C13.2312 46.2584 13.9173 45.5416 14.4073 45.004C14.6034 44.8248 14.7014 44.7352 14.7994 44.6456V51.1866C13.8193 51.3659 13.3292 51.9931 12.9372 52.3515C12.5452 52.7995 12.3492 52.9787 11.9571 52.9787C11.5651 52.9787 11.4671 52.7995 10.977 52.3515C10.487 51.9035 9.80092 51.097 8.5268 51.097C7.25268 51.097 6.56661 51.8139 6.07657 52.3515C5.68453 52.7995 5.48851 52.9787 5.09648 52.9787C4.70444 52.9787 4.60643 52.7995 4.11638 52.3515C3.72435 51.9035 3.13629 51.3659 2.25421 51.1866V44.6456ZM14.6034 34.1619C13.6233 34.3411 13.1332 34.9683 12.7412 35.3268C12.3492 35.7748 12.1531 35.954 11.7611 35.954C11.3691 35.954 11.2711 35.7748 10.781 35.3268C10.291 34.8787 9.6049 34.0723 8.33078 34.0723C7.05666 34.0723 6.3706 34.7891 5.88055 35.3268C5.48851 35.7748 5.2925 35.954 4.90046 35.954C4.50842 35.954 4.41041 35.7748 3.92037 35.3268C3.52833 34.8787 2.94028 34.3411 2.05819 34.1619V27.5312C2.1562 27.6208 2.25421 27.7104 2.45023 27.8896C2.94028 28.3377 3.62634 29.1441 4.90046 29.1441C6.17458 29.1441 6.86064 28.4273 7.35069 27.8896C7.74273 27.4416 7.93874 27.2624 8.33078 27.2624C8.72282 27.2624 8.82083 27.4416 9.31087 27.8896C9.80092 28.3377 10.487 29.1441 11.7611 29.1441C13.0352 29.1441 13.7213 28.4273 14.2113 27.8896C14.4073 27.7104 14.5054 27.6208 14.6034 27.5312V34.1619ZM12.0551 62.2079H4.90046C3.43032 62.2079 2.25421 61.1327 2.25421 59.7886V53.1579C2.35222 53.2475 2.45023 53.3371 2.64625 53.5163C3.13629 53.9644 3.82236 54.7708 5.09648 54.7708C6.3706 54.7708 7.05666 54.054 7.54671 53.5163C7.93874 53.0683 8.13476 52.8891 8.5268 52.8891C8.91883 52.8891 9.01684 53.0683 9.50689 53.5163C9.99693 53.9644 10.683 54.7708 11.9571 54.7708C13.2312 54.7708 13.9173 54.054 14.4073 53.5163C14.6034 53.3371 14.7014 53.2475 14.7994 53.1579V59.7886C14.6034 61.1327 13.4273 62.2079 12.0551 62.2079ZM4.80245 19.2877H11.9571C13.4273 19.2877 14.6034 20.3629 14.6034 21.707V25.6495C13.6233 25.8288 13.1332 26.456 12.7412 26.8144C12.3492 27.2624 12.1531 27.4416 11.7611 27.4416C11.3691 27.4416 11.2711 27.2624 10.781 26.8144C10.291 26.3664 9.6049 25.5599 8.33078 25.5599C7.05666 25.5599 6.3706 26.2768 5.88055 26.8144C5.48851 27.2624 5.2925 27.4416 4.90046 27.4416C4.50842 27.4416 4.41041 27.2624 3.92037 26.8144C3.52833 26.3664 2.94028 25.8288 2.05819 25.6495V21.707C2.25421 20.3629 3.43032 19.2877 4.80245 19.2877Z" fill="#333333"/>
<path d="M53.121 54.6812C53.611 54.4124 53.709 53.8748 53.415 53.4267L52.8269 52.6203C52.5329 52.1723 51.9449 52.0827 51.4548 52.3515C50.9648 52.6203 50.8668 53.1579 51.1608 53.6059L51.7488 54.4124C51.9449 54.6812 52.2389 54.7708 52.5329 54.7708C52.7289 54.8604 52.925 54.7708 53.121 54.6812Z" fill="#333333"/>
<path d="M59.4916 57.4589C58.9035 57.3693 58.5115 57.7277 58.4135 58.2654L58.3155 59.251C58.2175 59.699 58.6095 60.147 59.1975 60.2366H59.2956C59.7856 60.2366 60.1776 59.8782 60.2756 59.4302L60.3737 58.4446C60.4717 57.9069 60.0796 57.4589 59.4916 57.4589Z" fill="#333333"/>
<path d="M59.2956 35.7748L58.4135 36.3124C58.0214 36.5812 57.9234 37.2084 58.2175 37.5669C58.4135 37.8357 58.7075 37.9253 59.0015 37.9253C59.1976 37.9253 59.3936 37.8357 59.5896 37.7461L60.4717 37.2084C60.8637 36.9396 60.9617 36.3124 60.6677 35.954C60.2756 35.5956 59.6876 35.506 59.2956 35.7748Z" fill="#333333"/>
<path d="M58.1194 52.3515C58.3155 52.3515 58.5115 52.2619 58.7075 52.1723L59.5896 51.6347C59.9816 51.3659 60.0796 50.7386 59.7856 50.3802C59.4916 50.0218 58.8055 49.9322 58.4135 50.201L57.5314 50.7386C57.1394 51.0074 57.0413 51.6347 57.3354 51.9931C57.5314 52.1723 57.8254 52.3515 58.1194 52.3515Z" fill="#333333"/>
<path d="M57.2374 55.9356L58.1194 56.3837C58.2175 56.4733 58.4135 56.4733 58.5115 56.4733C58.9035 56.4733 59.1975 56.2941 59.3936 55.9356C59.5896 55.4876 59.3936 54.95 58.9035 54.7708L58.0214 54.3228C57.5314 54.1436 56.9433 54.3228 56.7473 54.7708C56.5513 55.1292 56.7473 55.6668 57.2374 55.9356Z" fill="#333333"/>
<path d="M53.709 57.9069C53.415 57.4589 52.827 57.3693 52.3369 57.6381C51.8469 57.9069 51.7488 58.4446 52.0429 58.8926L52.6309 59.699C52.827 59.9678 53.121 60.0574 53.415 60.0574C53.611 60.0574 53.807 59.9678 54.0031 59.8782C54.4931 59.6094 54.5911 59.0718 54.2971 58.6238L53.709 57.9069Z" fill="#333333"/>
<path d="M58.0214 43.3015C58.2175 43.5703 58.5115 43.6599 58.8055 43.6599C59.0015 43.6599 59.1975 43.5703 59.3936 43.4807C59.8836 43.2119 59.9816 42.6743 59.6876 42.2263L59.0995 41.4198C58.8055 40.9718 58.2175 40.8822 57.7274 41.151C57.2374 41.4198 57.1394 41.9574 57.4334 42.4055L58.0214 43.3015Z" fill="#333333"/>
<path d="M53.317 47.3337L52.5329 47.9609C52.1409 48.2297 52.0429 48.8569 52.3369 49.2154C52.5329 49.3946 52.827 49.5738 53.121 49.5738C53.317 49.5738 53.513 49.4842 53.709 49.3946L54.4931 48.7673C54.8851 48.4985 54.9832 47.8713 54.6891 47.5129C54.2971 47.0649 53.709 46.9753 53.317 47.3337Z" fill="#333333"/>
<path d="M52.925 40.6134C52.3369 40.6134 51.9449 41.0614 52.0429 41.599L52.1409 42.5847C52.1409 43.0327 52.6309 43.3911 53.121 43.3911C53.121 43.3911 53.121 43.3911 53.219 43.3911C53.807 43.3911 54.1991 42.9431 54.1011 42.4055L54.0031 41.4198C53.905 40.9718 53.415 40.5238 52.925 40.6134Z" fill="#333333"/>
<path d="M58.0214 47.9609L59.0995 48.0505H59.1975C59.6876 48.0505 60.0796 47.6921 60.1776 47.2441C60.1776 46.7961 59.7856 46.348 59.2956 46.2584L58.2175 46.1688C57.7274 46.0792 57.2374 46.5272 57.1394 46.9753C57.0413 47.5129 57.4334 47.9609 58.0214 47.9609Z" fill="#333333"/>
<path d="M52.0429 30.9362H52.1409C52.6309 30.9362 53.023 30.5778 53.121 30.1297L53.219 29.1441C53.317 28.6961 52.925 28.1584 52.3369 28.1584C51.8469 28.0688 51.2588 28.4273 51.2588 28.9649L51.1608 29.9505C51.1608 30.4881 51.5528 30.9362 52.0429 30.9362Z" fill="#333333"/>
<path d="M58.1194 29.5025C58.3155 29.5025 58.5115 29.4129 58.7075 29.3233L59.5896 28.7857C59.9816 28.5169 60.0796 27.8896 59.7856 27.5312C59.4916 27.1728 58.9035 27.0832 58.4135 27.352L57.5314 27.8896C57.1394 28.1584 57.0413 28.7857 57.3354 29.1441C57.5314 29.3233 57.8254 29.5025 58.1194 29.5025Z" fill="#333333"/>
<path d="M57.2374 33.1763L58.1194 33.6243C58.2175 33.7139 58.4135 33.7139 58.5115 33.7139C58.9035 33.7139 59.1975 33.5347 59.3936 33.1763C59.5896 32.7282 59.3936 32.1906 58.9035 32.0114L58.0214 31.5634C57.5314 31.3842 56.9433 31.5634 56.7473 32.0114C56.5513 32.3698 56.7473 32.9075 57.2374 33.1763Z" fill="#333333"/>
<path d="M54.2971 35.954L53.709 35.1476C53.415 34.6995 52.827 34.6099 52.3369 34.8787C51.8469 35.1476 51.7488 35.6852 52.0429 36.1332L52.6309 36.9396C52.827 37.2084 53.121 37.298 53.415 37.298C53.611 37.298 53.807 37.2084 54.0031 37.1188C54.4931 36.9396 54.5911 36.3124 54.2971 35.954Z" fill="#333333"/>
<path d="M52.6309 24.8431C52.827 24.8431 53.023 24.7535 53.219 24.6639L54.0031 24.0367C54.3951 23.7679 54.4931 23.1406 54.1991 22.7822C53.9051 22.4238 53.219 22.3342 52.827 22.603L52.0429 23.2302C51.6508 23.499 51.5528 24.1263 51.8469 24.4847C52.0429 24.6639 52.3369 24.8431 52.6309 24.8431Z" fill="#333333"/>
<path d="M58.2175 22.7822L59.2956 22.8718H59.3936C59.8836 22.8718 60.2756 22.5134 60.3737 22.0654C60.3737 21.6174 59.9816 21.1693 59.4916 21.0797L58.4135 20.9901C57.8254 20.9005 57.4334 21.3486 57.3354 21.7966C57.3354 22.3342 57.7274 22.6926 58.2175 22.7822Z" fill="#333333"/>
</svg>
