<svg width="64" height="64" viewBox="0 0 64 64" fill="none" xmlns="http://www.w3.org/2000/svg">
<path d="M63.0815 25.3974L61.2153 24.7926L60.6592 22.9198C60.5724 22.6278 60.3264 22.4094 60.025 22.3582C59.7269 22.3078 59.4191 22.4294 59.2382 22.675L58.0833 24.255L56.1214 24.203C55.808 24.2022 55.5323 24.3606 55.3893 24.6302C55.2462 24.899 55.2703 25.2262 55.4495 25.4726L56.6021 27.0542L55.9462 28.8958C55.8442 29.1822 55.9141 29.503 56.1279 29.7206C56.3417 29.9382 56.6615 30.019 56.9517 29.9238L58.8179 29.3214L60.3747 30.511C60.5185 30.6206 60.6913 30.6766 60.8641 30.6766C60.9847 30.6766 61.1068 30.6494 61.2185 30.5942C61.4934 30.4598 61.6678 30.1814 61.6678 29.8774L61.6694 27.9238L63.2881 26.8174C63.5397 26.6446 63.6723 26.3446 63.6281 26.043C63.5847 25.7422 63.3733 25.4918 63.0815 25.3974ZM60.4116 26.843C60.1938 26.9926 60.0628 27.2382 60.0628 27.5014L60.062 28.2542L59.4625 27.7958C59.3194 27.687 59.1474 27.6302 58.973 27.6302C58.8894 27.6302 58.8066 27.643 58.7246 27.6694L58.0045 27.9014L58.2569 27.191C58.3453 26.9422 58.3059 26.6678 58.15 26.4542L57.7056 25.8446L58.4618 25.8646C58.7319 25.8614 58.9778 25.7478 59.1329 25.5358L59.5782 24.927L59.7928 25.6478C59.8683 25.9006 60.0628 26.0998 60.3144 26.1822L61.0345 26.415L60.4116 26.843Z" fill="#333333"/>
<path d="M48.9114 6.43417C49.1252 6.65177 49.4443 6.73177 49.7352 6.63737L51.2478 6.14937L52.5088 7.11337C52.6526 7.22297 52.8254 7.27897 52.9982 7.27897C53.1188 7.27897 53.241 7.25177 53.3527 7.19657C53.6275 7.06217 53.8019 6.78377 53.8019 6.47977L53.8036 4.89657L55.1152 4.00057C55.3668 3.82777 55.4994 3.52777 55.4552 3.22697C55.4118 2.92537 55.2004 2.67497 54.9087 2.57977L53.3961 2.08937L52.9444 0.57177C52.8576 0.28057 52.6117 0.0621704 52.3103 0.0109704C52.0097 -0.0386296 51.7043 0.0821699 51.5234 0.32857L50.5879 1.60857L48.9974 1.56617C48.7 1.56937 48.4075 1.72377 48.2652 1.99337C48.1222 2.26297 48.1463 2.58937 48.3255 2.83577L49.2594 4.11737L48.7281 5.61017C48.6285 5.89657 48.6984 6.21657 48.9114 6.43417ZM50.9697 3.21897C51.2325 3.23017 51.4857 3.10297 51.6408 2.88937L51.8666 2.57977L51.9759 2.94697C52.0515 3.19897 52.246 3.39817 52.4975 3.48057L52.8632 3.59897L52.5458 3.81577C52.3279 3.96537 52.1969 4.21097 52.1969 4.47417L52.1961 4.85737L51.8915 4.62457C51.7485 4.51577 51.5765 4.45897 51.4021 4.45897C51.3185 4.45897 51.2357 4.47177 51.1537 4.49817L50.788 4.61577L50.9166 4.25497C51.005 4.00617 50.9657 3.73177 50.8097 3.51817L50.5847 3.20857L50.9697 3.21897Z" fill="#333333"/>
<path d="M41.5149 36.0774C41.4128 35.7902 41.1572 35.5854 40.8534 35.5486L39.2741 35.3598L38.5355 33.9574C38.3933 33.6878 38.0943 33.5358 37.8042 33.5286C37.498 33.5366 37.2231 33.7158 37.0945 33.9918L36.4258 35.4286L34.8578 35.6934C34.5564 35.7446 34.3096 35.9622 34.2228 36.2534C34.1352 36.5454 34.222 36.8614 34.4455 37.0694L35.6116 38.1462L35.381 39.7126C35.336 40.0142 35.4678 40.3142 35.7193 40.4878C35.8568 40.5814 36.0159 40.6294 36.1758 40.6294C36.3101 40.6294 36.4451 40.5958 36.5665 40.5286L37.9561 39.7582L39.381 40.4606C39.6559 40.5958 39.983 40.5646 40.2257 40.379C40.4684 40.1934 40.585 39.8878 40.5263 39.5894L40.2193 38.0358L41.3308 36.9038C41.5454 36.6846 41.6161 36.3654 41.5149 36.0774ZM38.7758 37.2166C38.591 37.4046 38.5106 37.6718 38.5613 37.9302L38.636 38.307L38.2904 38.1366C38.0533 38.0198 37.772 38.027 37.543 38.1542L37.207 38.3406L37.2625 37.9614C37.301 37.7006 37.2086 37.4382 37.0141 37.2582L36.732 36.9982L37.1106 36.9342C37.371 36.8902 37.5936 36.7214 37.7045 36.483L37.866 36.135L38.0453 36.4742C38.1682 36.7078 38.3981 36.8654 38.6609 36.8974L39.0435 36.943L38.7758 37.2166Z" fill="#333333"/>
<path d="M27.1028 2.97737L25.1546 3.21257L23.8558 1.74697C23.6541 1.51897 23.3398 1.42537 23.0425 1.50457C22.7475 1.58457 22.5233 1.82297 22.4638 2.12217L22.0861 4.03897L20.285 4.81577C20.0037 4.93737 19.8164 5.20617 19.8011 5.51017C19.7859 5.81497 19.9458 6.10057 20.2134 6.24937L21.9285 7.19977L22.1142 9.14457C22.1423 9.44777 22.3416 9.70777 22.6286 9.81657C22.721 9.85177 22.8174 9.86857 22.9139 9.86857C23.1132 9.86857 23.3093 9.79417 23.4612 9.65417L24.899 8.32537L26.8151 8.74937C27.1141 8.81737 27.4243 8.70777 27.6164 8.47017C27.8077 8.23257 27.8478 7.90777 27.7193 7.63177L26.893 5.85977L27.8912 4.17737C28.0464 3.91497 28.0391 3.58777 27.872 3.33257C27.7048 3.07897 27.4042 2.93897 27.1028 2.97737ZM25.2567 6.15337L25.575 6.83657L24.8372 6.67337C24.5784 6.61417 24.3099 6.68857 24.1154 6.86777L23.5609 7.38057L23.4893 6.63017C23.4652 6.36857 23.3117 6.13497 23.0802 6.00697L22.4188 5.64057L23.1132 5.34137C23.3559 5.23577 23.5319 5.01977 23.5826 4.76057L23.728 4.02217L24.2287 4.58697C24.404 4.78377 24.6668 4.88377 24.928 4.85177L25.6794 4.76137L25.2945 5.41017C25.1594 5.63577 25.145 5.91497 25.2567 6.15337Z" fill="#333333"/>
<path d="M56.2854 36.4414C55.5066 36.3918 54.7479 36.6494 54.1588 37.1646C53.5697 37.6798 53.2193 38.3934 53.1694 39.1734C53.1196 39.9526 53.3784 40.7038 53.8968 41.2902C54.4152 41.8758 55.1313 42.2254 55.9141 42.275C55.9776 42.279 56.0403 42.2806 56.1038 42.2806C56.8183 42.2806 57.499 42.0254 58.0399 41.551C58.6282 41.035 58.9794 40.3222 59.0293 39.543C59.0791 38.7638 58.8203 38.0126 58.3027 37.4262C57.7851 36.8398 57.069 36.4918 56.2854 36.4414ZM56.9782 40.351C56.4277 40.8326 55.5886 40.7782 55.1032 40.2326C54.8685 39.9678 54.7519 39.627 54.7744 39.275C54.7969 38.923 54.9561 38.5998 55.2229 38.3662C55.468 38.1518 55.7759 38.0366 56.0989 38.0366C56.1279 38.0366 56.156 38.0374 56.1849 38.039C56.5386 38.0614 56.8633 38.2198 57.0979 38.4854C57.3326 38.7502 57.4492 39.0902 57.4267 39.4422C57.4034 39.795 57.245 40.1174 56.9782 40.351Z" fill="#333333"/>
<path d="M39.8158 9.22857C41.031 8.16377 41.1484 6.31257 40.0778 5.10377C39.0081 3.89417 37.1491 3.77817 35.9339 4.84297C34.7195 5.90857 34.6022 7.75977 35.6727 8.96777C36.2522 9.62217 37.0623 9.95657 37.8765 9.95657C38.5661 9.95657 39.2589 9.71657 39.8158 9.22857ZM36.8783 7.90937C36.3937 7.36217 36.4475 6.52537 36.9964 6.04297C37.248 5.82217 37.5614 5.71337 37.8741 5.71337C38.243 5.71337 38.6103 5.86457 38.8723 6.16137C39.107 6.42617 39.2235 6.76697 39.201 7.11897C39.1785 7.47097 39.0194 7.79497 38.7525 8.02777C38.2044 8.50857 37.3621 8.45657 36.8783 7.90937Z" fill="#333333"/>
<path d="M16.5694 20.7518C15.9811 21.2678 15.6299 21.9806 15.5801 22.7606C15.5302 23.5398 15.789 24.291 16.3074 24.8774C16.8258 25.463 17.5411 25.8126 18.3247 25.8622C18.3882 25.8662 18.4509 25.8678 18.5144 25.8678C19.2289 25.8678 19.9096 25.6126 20.4505 25.1382C21.0388 24.6222 21.3901 23.9094 21.4399 23.1302C21.4897 22.351 21.2309 21.5998 20.7125 21.0134C20.1941 20.4278 19.478 20.0782 18.6952 20.0286C17.9084 19.9814 17.1577 20.2366 16.5694 20.7518ZM19.388 23.9374C19.1212 24.171 18.7748 24.283 18.426 24.2646C18.0724 24.2422 17.7477 24.0838 17.5138 23.8182C17.2791 23.5534 17.1618 23.2126 17.1843 22.8606C17.2068 22.5086 17.3659 22.1854 17.6327 21.9518C17.8779 21.7374 18.1857 21.6222 18.5088 21.6222C18.5369 21.6222 18.565 21.623 18.594 21.6246C18.9476 21.647 19.2731 21.8054 19.5078 22.071C19.9908 22.6182 19.9378 23.4558 19.388 23.9374Z" fill="#333333"/>
<path d="M43.9413 20.2614C42.935 19.2606 41.2987 19.2614 40.2957 20.2614L31.3833 29.1326C30.5772 29.935 30.4293 31.135 30.9148 32.0966L0.235687 62.6326C-0.0785624 62.9454 -0.0785624 63.451 0.235687 63.7638C0.39241 63.9198 0.598159 63.9982 0.803908 63.9982C1.00966 63.9982 1.21541 63.9198 1.37213 63.7638L32.0512 33.227C32.4145 33.4086 32.8075 33.511 33.2054 33.511C33.8652 33.511 34.5258 33.2614 35.0282 32.7606L43.9413 23.8886C44.9459 22.8886 44.9459 21.2614 43.9413 20.2614ZM42.8048 22.7582L33.8917 31.6302C33.5132 32.007 32.8983 32.007 32.5198 31.6302C32.1412 31.2534 32.1412 30.6406 32.5198 30.2638L41.4321 21.3926C41.621 21.2046 41.8701 21.1094 42.1185 21.1094C42.3676 21.1094 42.616 21.2038 42.8048 21.3926C43.1826 21.7686 43.1818 22.3814 42.8048 22.7582Z" fill="#333333"/>
<path d="M57.7956 6.46937C57.4813 6.15657 56.9734 6.15657 56.6591 6.46937L45.8428 17.2358C45.5286 17.5486 45.5286 18.0542 45.8428 18.367C45.9996 18.523 46.2053 18.6014 46.4111 18.6014C46.6168 18.6014 46.8226 18.523 46.9793 18.367L57.7956 7.60057C58.1098 7.28857 58.1098 6.78217 57.7956 6.46937Z" fill="#333333"/>
<path d="M63.0751 18.883L47.9534 21.1806C47.5145 21.247 47.2132 21.655 47.2807 22.0926C47.341 22.4878 47.6833 22.7718 48.0739 22.7718C48.1141 22.7718 48.1551 22.7686 48.1961 22.7622L63.3178 20.4646C63.7567 20.3982 64.0581 19.9902 63.9905 19.5526C63.9246 19.1166 63.5244 18.815 63.0751 18.883Z" fill="#333333"/>
<path d="M59.8265 34.6486C60.0652 34.2758 59.9559 33.7814 59.5822 33.543L46.6956 25.3406C46.321 25.103 45.8252 25.2118 45.5848 25.5838C45.3461 25.9566 45.4555 26.451 45.8292 26.6894L58.7166 34.8918C58.8508 34.9766 59.0011 35.0174 59.149 35.0174C59.4142 35.0174 59.673 34.887 59.8265 34.6486Z" fill="#333333"/>
<path d="M50.2343 42.8046C50.3862 43.0486 50.6498 43.1822 50.9183 43.1822C51.0637 43.1822 51.2092 43.143 51.3418 43.0622C51.7187 42.8286 51.8337 42.3358 51.5998 41.9598L43.5217 29.0294C43.287 28.6534 42.7928 28.5406 42.4142 28.7726C42.0373 29.0062 41.9224 29.499 42.1562 29.875L50.2343 42.8046Z" fill="#333333"/>
<path d="M42.3692 17.091C42.7598 17.091 43.1022 16.8078 43.1625 16.4118L45.4707 1.35977C45.5382 0.92217 45.2368 0.51417 44.798 0.44777C44.3495 0.38057 43.9485 0.68137 43.8818 1.11737L41.5735 16.1694C41.506 16.607 41.8074 17.015 42.2462 17.0814C42.288 17.0878 42.329 17.091 42.3692 17.091Z" fill="#333333"/>
<path d="M29.6321 4.59337C29.2583 4.83177 29.149 5.32617 29.3877 5.69897L37.6282 18.527C37.7817 18.7654 38.0413 18.8958 38.3065 18.8958C38.4552 18.8958 38.6047 18.855 38.7389 18.7702C39.1126 18.5318 39.2219 18.0374 38.9832 17.6646L30.7428 4.83577C30.5033 4.46537 30.0058 4.35577 29.6321 4.59337Z" fill="#333333"/>
<path d="M21.1803 13.039C20.9464 13.415 21.0621 13.9078 21.4383 14.1414L34.4286 22.1822C34.5612 22.2638 34.7075 22.3022 34.8521 22.3022C35.1206 22.3022 35.3834 22.1686 35.5361 21.9246C35.77 21.5486 35.6542 21.0558 35.2781 20.8222L22.287 12.7822C21.9092 12.551 21.4142 12.6638 21.1803 13.039Z" fill="#333333"/>
</svg>
