<svg width="48" height="48" viewBox="0 0 48 48" fill="none" xmlns="http://www.w3.org/2000/svg">
<path d="M36.3233 16.7855C36.3847 16.7855 36.3847 16.7855 36.3847 16.7243L36.5688 16.1734L37.121 16.051C37.121 16.051 37.1823 16.051 37.1823 15.9898V15.9286L36.7528 15.5614V15.0105C36.7528 15.0105 36.7528 14.9493 36.6915 14.9493H36.6301L36.1393 15.2553L35.5871 15.0717H35.5257V15.1329L35.7098 15.6838L35.3416 16.1122V16.1734L35.403 16.2346H35.9552L36.262 16.7243C36.262 16.7855 36.262 16.7855 36.3233 16.7855Z" fill="currentColor"/>
<path d="M40.6797 29.1489V28.598C40.6797 28.598 40.6797 28.5368 40.6184 28.5368H40.557L40.0662 28.8428L39.5139 28.6592H39.4526V28.7204L39.6367 29.2713L39.2685 29.6997V29.7609L39.3299 29.8221H39.8821L40.1889 30.3118L40.2502 30.373C40.2502 30.373 40.3116 30.373 40.3116 30.3118L40.4957 29.7609L41.0479 29.6385C41.0479 29.6385 41.1092 29.6385 41.1092 29.5773V29.5161L40.6797 29.1489Z" fill="currentColor"/>
<path d="M37.3664 22.8448V22.2939C37.3664 22.2939 37.3664 22.2327 37.3051 22.2327H37.2437L36.7528 22.5387L36.3233 22.3551H36.262V22.4163L36.4461 22.9672L36.0779 23.3956V23.4568L36.1393 23.518H36.6915L36.9983 24.0076L37.0596 24.0689C37.0596 24.0689 37.121 24.0689 37.121 24.0076L37.3051 23.4568L37.8573 23.3344C37.8573 23.3344 37.9186 23.3344 37.9186 23.2732V23.212L37.3664 22.8448Z" fill="currentColor"/>
<path d="M33.4396 15.0974C33.8302 14.8942 33.9818 14.4136 33.7781 14.024C33.5744 13.6343 33.0926 13.4832 32.702 13.6864C32.3113 13.8896 32.1598 14.3702 32.3635 14.7598C32.5672 15.1494 33.049 15.3006 33.4396 15.0974Z" fill="currentColor"/>
<path d="M37.4175 20.06C37.8082 19.8568 37.9597 19.3762 37.756 18.9866C37.5523 18.5969 37.0705 18.4458 36.6799 18.649C36.2893 18.8522 36.1377 19.3328 36.3414 19.7224C36.5451 20.112 37.0269 20.2632 37.4175 20.06Z" fill="currentColor"/>
<path d="M41.3011 26.0117C41.6917 25.8085 41.8433 25.3279 41.6396 24.9382C41.4359 24.5486 40.9541 24.3975 40.5634 24.6006C40.1728 24.8038 40.0213 25.2844 40.225 25.6741C40.4287 26.0637 40.9105 26.2149 41.3011 26.0117Z" fill="currentColor"/>
<path d="M44.232 31.3394C44.6226 31.1362 44.7741 30.6556 44.5704 30.266C44.3667 29.8764 43.885 29.7252 43.4943 29.9284C43.1037 30.1316 42.9522 30.6122 43.1559 31.0018C43.3596 31.3915 43.8414 31.5426 44.232 31.3394Z" fill="currentColor"/>
<path d="M37.2437 11.2158C36.9369 10.6038 36.3847 10.1753 35.7711 9.99171C35.0962 9.74689 34.4213 9.8081 33.869 10.1141L32.7032 10.7262L32.0897 9.50207C32.8873 7.23749 32.7646 5.46254 31.7829 4.17724C29.8194 1.60663 25.1563 2.03507 24.9722 2.09627C24.6654 2.09627 24.42 2.34109 24.42 2.64711C24.42 2.95314 24.604 3.19796 24.8495 3.25916C24.8495 3.25916 25.8926 3.6876 26.4448 6.38062C26.997 9.01243 29.4513 9.93051 30.9852 10.0529L31.6602 11.3382L30.4944 11.9503C29.2672 12.6235 28.7764 14.1536 29.3899 15.3777L39.7594 35.2082C40.0662 35.8202 40.6184 36.2486 41.2319 36.4323C41.4774 36.4935 41.7228 36.5547 42.0296 36.5547C42.4591 36.5547 42.8272 36.4323 43.1954 36.2486L46.6314 34.4737C47.8586 33.8004 48.3494 32.2703 47.7358 31.0462L37.2437 11.2158ZM27.6106 6.1358C27.3038 4.78929 26.9356 3.87121 26.5061 3.25916C27.856 3.32037 29.7581 3.6876 30.7398 4.9117C31.292 5.64616 31.4761 6.68664 31.2307 7.91074L30.8625 7.17628C30.6784 6.87026 30.3103 6.74785 30.0649 6.93146C29.7581 7.11508 29.6354 7.48231 29.8194 7.72713L30.2489 8.584C29.2059 8.40038 27.9787 7.78833 27.6106 6.1358ZM46.0178 33.372L42.5818 35.147C42.275 35.3306 41.9069 35.3306 41.6001 35.2082C41.2933 35.0857 40.9865 34.9021 40.8024 34.5961L30.433 14.7657C30.1262 14.1536 30.3717 13.358 30.9852 12.9908L34.4213 11.2158C34.6053 11.0934 34.7894 11.0934 35.0348 11.0934C35.1575 11.0934 35.2803 11.0934 35.4643 11.1546C35.7711 11.277 36.0779 11.4606 36.262 11.7667L46.6314 31.5971C46.8768 32.2703 46.6314 33.066 46.0178 33.372Z" fill="currentColor"/>
<path d="M24.3586 26.6395L24.4813 27.1903C24.4813 27.1903 24.4813 27.2515 24.5427 27.2515H24.604L24.9722 26.8231L25.5244 26.8843C25.5858 26.8843 25.5858 26.8843 25.5858 26.8231V26.7619L25.3403 26.2722L25.5858 25.7826V25.7214H25.5244L24.9722 25.8438L24.5427 25.4766H24.4813L24.42 25.5378L24.3586 26.0886L23.8678 26.2722L23.8064 26.3334C23.8064 26.3334 23.8064 26.3946 23.8678 26.3946L24.3586 26.6395Z" fill="currentColor"/>
<path d="M24.42 40.3494L24.6654 39.8597V39.7985H24.604L24.0518 39.8597L23.6223 39.4925H23.561L23.4996 39.5537L23.4383 40.1046L22.9474 40.4106L22.886 40.4718C22.886 40.4718 22.886 40.533 22.9474 40.533L23.4996 40.7166L23.6223 41.2675C23.6223 41.2675 23.6223 41.3287 23.6837 41.3287H23.745L24.1132 40.9002L24.6654 40.9614C24.7268 40.9614 24.7268 40.9614 24.7268 40.9002V40.839L24.42 40.3494Z" fill="currentColor"/>
<path d="M23.745 33.9229C23.8064 33.9229 23.8064 33.9229 23.8064 33.8616V33.8004L23.4996 33.3108L23.745 32.8212V32.76H23.6837L23.1315 32.8824L22.702 32.5151H22.6406L22.5792 32.5763L22.5179 33.1272L22.027 33.4332L21.9657 33.4944C21.9657 33.4944 21.9657 33.5556 22.027 33.5556L22.5792 33.7392L22.702 34.2901C22.702 34.2901 22.702 34.3513 22.7633 34.3513H22.8247L23.1928 33.9229H23.745Z" fill="currentColor"/>
<path d="M22.4363 24.6693C22.8728 24.6105 23.179 24.2098 23.1201 23.7744C23.0612 23.3389 22.6595 23.0335 22.223 23.0922C21.7864 23.151 21.4803 23.5516 21.5392 23.9871C21.5981 24.4226 21.9997 24.728 22.4363 24.6693Z" fill="currentColor"/>
<path d="M24.4637 30.7333C24.9002 30.6746 25.2064 30.2739 25.1475 29.8384C25.0886 29.4029 24.6869 29.0976 24.2504 29.1563C23.8138 29.2151 23.5077 29.6157 23.5666 30.0512C23.6255 30.4867 24.0271 30.7921 24.4637 30.7333Z" fill="currentColor"/>
<path d="M26.1177 37.5881C26.5543 37.5293 26.8604 37.1287 26.8015 36.6932C26.7426 36.2577 26.341 35.9523 25.9044 36.0111C25.4679 36.0698 25.1617 36.4705 25.2206 36.906C25.2795 37.3414 25.6811 37.6468 26.1177 37.5881Z" fill="currentColor"/>
<path d="M27.1015 43.643C27.538 43.5842 27.8442 43.1836 27.7853 42.7481C27.7264 42.3126 27.3247 42.0072 26.8882 42.066C26.4516 42.1247 26.1455 42.5254 26.2044 42.9608C26.2633 43.3963 26.6649 43.7017 27.1015 43.643Z" fill="currentColor"/>
<path d="M24.5427 13.8476C23.561 10.7874 19.0819 9.62448 18.8978 9.56328C18.591 9.50207 18.2842 9.62448 18.1615 9.93051C18.0388 10.1753 18.1001 10.5426 18.4069 10.665C18.4069 10.665 19.2046 11.4606 18.8364 14.1537C18.4683 16.8467 20.4317 18.4992 21.843 19.1113L22.027 20.519L20.6772 20.7026C19.2659 20.8862 18.2842 22.1715 18.5296 23.5792L21.5362 45.7966C21.5975 46.4699 21.9657 47.0819 22.5179 47.4492C22.9474 47.8164 23.4996 48 24.0518 48C24.1745 48 24.2973 48 24.42 48L28.2241 47.5104C29.6354 47.3267 30.6171 46.0414 30.3717 44.6337L27.3651 22.4163C27.3038 21.7431 26.9356 21.131 26.3834 20.7638C25.8312 20.3354 25.1563 20.1517 24.4813 20.2741L23.1928 20.4578L23.0087 19.1113C24.5427 17.1527 25.0335 15.3777 24.5427 13.8476ZM24.6654 21.3758C24.7268 21.3758 24.7881 21.3758 24.8495 21.3758C25.1563 21.3758 25.4017 21.4982 25.6471 21.6207C25.9539 21.8043 26.0766 22.1103 26.138 22.4775L29.1445 44.6949C29.2672 45.4294 28.715 46.0414 28.0401 46.1638L24.2359 46.6535C23.8678 46.7147 23.561 46.5923 23.2542 46.4087C22.9474 46.2251 22.8247 45.919 22.7633 45.5518L19.7568 23.3344C19.6341 22.5999 20.1863 21.9879 20.8612 21.8655L24.6654 21.3758ZM20.0022 14.2761C20.1863 12.9296 20.1249 11.8891 19.9409 11.2158C21.168 11.7667 22.886 12.6847 23.3769 14.2149C23.6837 15.1329 23.4382 16.1122 22.8247 17.2139L22.702 16.4182C22.6406 16.1122 22.3338 15.8674 22.027 15.8674C21.7202 15.9286 21.4748 16.2346 21.4748 16.5406L21.5975 17.5199C20.7385 16.9691 19.7568 15.9286 20.0022 14.2761Z" fill="currentColor"/>
<path d="M10.5532 17.5199V17.5811L10.9213 18.0096L10.7986 18.5604V18.6216H10.86L11.3508 18.3768L11.8417 18.6828C11.8417 18.6828 11.8417 18.6828 11.903 18.6828C11.903 18.6828 11.903 18.6828 11.9644 18.6828L12.0257 18.6216L11.9644 18.0708L12.3939 17.7035V17.6423C12.3939 17.6423 12.3939 17.5811 12.3325 17.5811L11.7803 17.4587L11.5349 16.9691L11.4735 16.9079C11.4735 16.9079 11.4122 16.9079 11.4122 16.9691L11.1667 17.4587L10.6145 17.5199H10.5532Z" fill="currentColor"/>
<path d="M4.04926 30.373L3.92655 30.9238V30.985H3.9879L4.47877 30.7402L4.96963 31.0462C4.96963 31.0462 4.96963 31.0462 5.03098 31.0462C5.03098 31.0462 5.03098 31.0462 5.09234 31.0462L5.1537 30.985L5.09234 30.4342L5.52184 30.0669V30.0057C5.52184 30.0057 5.52184 29.9445 5.46049 29.9445L4.90827 29.8221L4.66284 29.3325L4.60148 29.2713C4.60148 29.2713 4.54012 29.2713 4.54012 29.3325L4.29469 29.8221L3.74247 29.8833C3.74247 29.8833 3.68112 29.8833 3.68112 29.9445C3.68112 30.0057 3.68112 30.0057 3.68112 30.0057L4.04926 30.373Z" fill="currentColor"/>
<path d="M6.25813 23.6404L6.13542 24.1913V24.2525H6.19678L6.68764 24.0076L7.1785 24.3137C7.1785 24.3137 7.1785 24.3137 7.23986 24.3137C7.23986 24.3137 7.23986 24.3137 7.30121 24.3137L7.36257 24.2525L7.30121 23.7016L7.73072 23.3344V23.2732C7.73072 23.2732 7.73072 23.212 7.66936 23.212L7.11714 23.0896L6.87171 22.5387L6.81035 22.4775C6.81035 22.4775 6.74899 22.4775 6.74899 22.5387L6.50356 23.0284L5.95135 23.0896C5.95135 23.0896 5.88999 23.0896 5.88999 23.1508C5.88999 23.212 5.88999 23.212 5.88999 23.212L6.25813 23.6404Z" fill="currentColor"/>
<path d="M11.0234 14.8842C11.1591 14.4661 10.9295 14.0175 10.5104 13.882C10.0913 13.7466 9.64152 13.9757 9.50575 14.3937C9.36998 14.8118 9.59964 15.2604 10.0187 15.3959C10.4378 15.5313 10.8876 15.3022 11.0234 14.8842Z" fill="currentColor"/>
<path d="M10.2825 21.2588C10.4183 20.8407 10.1886 20.3921 9.76953 20.2566C9.35046 20.1212 8.90066 20.3503 8.76489 20.7683C8.62912 21.1864 8.85878 21.635 9.27786 21.7705C9.69693 21.9059 10.1467 21.6768 10.2825 21.2588Z" fill="currentColor"/>
<path d="M8.7971 28.1624C8.93287 27.7444 8.70321 27.2957 8.28413 27.1602C7.86506 27.0248 7.41526 27.2539 7.27949 27.6719C7.14372 28.09 7.37338 28.5386 7.79246 28.6741C8.21154 28.8095 8.66133 28.5804 8.7971 28.1624Z" fill="currentColor"/>
<path d="M6.99513 34.0144C7.1309 33.5964 6.90124 33.1477 6.48216 33.0123C6.06309 32.8768 5.6133 33.1059 5.47753 33.524C5.34175 33.942 5.57142 34.3907 5.99049 34.5261C6.40957 34.6615 6.85936 34.4324 6.99513 34.0144Z" fill="currentColor"/>
<path d="M5.39913 38.3296C5.64456 38.3908 5.88999 38.452 6.19678 38.452C6.56492 38.452 6.99442 38.3296 7.36257 38.146C7.97615 37.84 8.40565 37.2891 8.65108 36.6771L15.5845 15.3777C15.7686 14.7657 15.7072 14.0312 15.4004 13.4192C15.0936 12.8071 14.5414 12.3787 13.9278 12.1339L12.7007 11.7055L13.1302 10.4201C15.2777 9.37966 16.5048 8.09436 16.7503 6.44182C17.1798 3.25917 13.621 0.260121 13.4983 0.137711C13.2529 -0.0459037 12.9461 -0.0459037 12.7007 0.137711C12.4552 0.321326 12.3939 0.627351 12.578 0.933376C12.578 0.933376 12.9461 1.97386 11.4735 4.23844C9.93959 6.50303 11.044 8.82882 12.0257 10.0529L11.5962 11.3994L10.3077 10.971C8.95787 10.5426 7.54664 11.277 7.11714 12.6235L0.122378 33.9841C-0.307125 35.3306 0.429166 36.7383 1.77903 37.1667L5.39913 38.3296ZM12.3939 4.9729C13.1302 3.81001 13.4983 2.89193 13.6824 2.15748C14.6028 3.19796 15.7072 4.78929 15.4618 6.31941C15.3391 7.23749 14.7255 8.09436 13.621 8.76761L13.8665 8.03315C13.9892 7.72713 13.8051 7.3599 13.4983 7.23749C13.1915 7.11508 12.8234 7.29869 12.7007 7.60472L12.3939 8.6452C11.903 7.72713 11.4735 6.38062 12.3939 4.9729ZM1.28817 34.3513L8.22158 13.052C8.40565 12.5011 8.89651 12.1339 9.44873 12.1339C9.57144 12.1339 9.69416 12.1339 9.87823 12.1951L13.5597 13.358C13.8665 13.4804 14.1733 13.7252 14.296 14.0312C14.48 14.3373 14.48 14.7045 14.3573 15.0105L7.42393 36.3098C7.30121 36.6159 7.05578 36.9219 6.74899 37.0443C6.44221 37.2279 6.07406 37.2279 5.76727 37.1055L2.08582 35.9426C1.41089 35.759 1.04274 35.0245 1.28817 34.3513Z" fill="currentColor"/>
</svg>
