<svg width="48" height="48" viewBox="0 0 48 48" fill="none" xmlns="http://www.w3.org/2000/svg">
<path d="M1.64439 23.8159C0.936182 24.9207 -0.480239 27.1918 0.163588 28.4194C0.356737 28.7877 0.743033 29.156 1.70878 29.156C4.02656 29.156 5.95804 27.8056 6.8594 25.9642C8.21144 27.6829 11.2374 28.9105 14.7785 28.9105C18.3195 28.9105 21.3455 27.6829 22.6976 25.9642C23.5989 27.867 25.5304 29.2174 27.8482 29.2174C28.7495 29.2174 29.2002 28.7877 29.3934 28.4808C30.0372 27.2532 28.6852 24.9207 27.9126 23.8772C28.6208 22.7724 30.0372 20.5013 29.3934 19.2737C29.2002 18.9054 28.8139 18.5371 27.8482 18.5371C25.5304 18.5371 23.5345 19.8875 22.6976 21.7903C21.3455 20.0102 18.3195 18.844 14.7785 18.844C11.2374 18.844 8.27582 20.0102 6.8594 21.7903C5.95804 19.8875 4.02656 18.5985 1.70878 18.5985C0.807416 18.5985 0.356737 19.0281 0.163588 19.335C-0.480239 20.4399 0.936182 22.7724 1.64439 23.8159ZM23.5345 23.8159C23.5345 21.5448 25.466 19.6419 27.9126 19.6419C27.977 19.6419 28.2345 19.6419 28.2989 19.7647C28.5564 20.2558 27.655 22.0972 26.6893 23.4476C26.5605 23.6317 26.5605 23.9386 26.6893 24.1228C27.655 25.4731 28.5564 27.3146 28.2989 27.8056C28.2345 27.867 27.977 27.9284 27.9126 27.9284C25.466 27.9898 23.5345 26.1483 23.5345 23.8159ZM7.37446 23.8159C7.37446 21.7289 10.7867 19.9488 14.7785 19.9488C18.7702 19.9488 22.1825 21.7289 22.1825 23.8159C22.1825 25.9028 18.7702 27.6829 14.7785 27.6829C10.7867 27.6829 7.37446 25.9028 7.37446 23.8159ZM1.32248 19.7647C1.38686 19.7033 1.64439 19.6419 1.70878 19.6419C4.09094 19.6419 6.08681 21.4834 6.08681 23.8159C6.08681 26.1483 4.15532 27.9898 1.70878 27.9898C1.64439 27.9898 1.38686 27.9898 1.32248 27.867C1.06495 27.376 1.96631 25.5345 2.93205 24.1841C3.06081 24 3.06081 23.6931 2.93205 23.509C1.96631 22.1586 1.06495 20.2558 1.32248 19.7647Z" fill="currentColor"/>
<path d="M40.5316 16.0818C41.6905 15.4066 44.0083 13.8721 43.9439 12.5217C43.9439 12.1535 43.7507 11.601 42.9138 11.2327C41.5617 10.6189 40.0165 10.5575 38.6001 11.0486C37.8919 11.2941 37.3125 11.601 36.7974 12.0921C36.6686 11.3555 36.3467 10.6189 35.7673 9.88235C34.7371 8.40921 32.9988 7.05882 30.9386 6.13811C27.7194 4.66496 24.5003 4.5422 22.5044 5.58568C22.5688 3.49872 21.3455 1.53453 19.2853 0.613811C18.4483 0.245524 17.8689 0.429667 17.5469 0.675192C16.3881 1.53453 16.6456 4.17391 16.7743 5.46291C15.6155 6.13811 13.2977 7.67263 13.3621 9.02302C13.3621 9.3913 13.5552 9.94373 14.3922 10.312C15.1648 10.6803 16.0018 10.8031 16.7743 10.8031C18.1264 10.8031 19.4784 10.312 20.4442 9.51407C20.5729 10.1893 20.8948 10.9258 21.4743 11.6624C22.5044 13.1355 24.2428 14.4859 26.303 15.4066C28.1057 16.2046 29.9084 16.6343 31.5824 16.6343C31.8399 16.6343 32.0975 16.6343 32.355 16.5729C33.2563 16.5115 34.0933 16.266 34.7371 15.9591C34.7371 16.6343 34.8015 17.3095 35.0591 17.9233C35.5741 19.2737 36.6042 20.3785 37.9563 20.9923C38.2782 21.1151 38.6001 21.1765 38.7933 21.1765C39.1796 21.1765 39.4371 21.0537 39.6302 20.9309C40.9823 20.0102 40.7247 17.3708 40.5316 16.0818ZM20.8305 7.18158C19.8003 9.26854 17.225 10.1279 15.036 9.14578C14.9716 9.0844 14.7141 9.02302 14.7141 8.90026C14.7141 8.34783 16.3237 7.05882 17.8689 6.19949C18.1264 6.07673 18.2552 5.8312 18.1908 5.58568C17.9332 3.98977 17.9332 1.90281 18.3839 1.59591H18.4483C18.5771 1.59591 18.7058 1.65729 18.7702 1.65729C20.8948 2.63939 21.7962 5.09463 20.8305 7.18158ZM35.381 13.7494C34.9303 14.6087 33.9002 15.1611 32.355 15.2839C30.681 15.4066 28.8139 15.0384 26.9468 14.179C25.0797 13.3197 23.5989 12.1535 22.6332 10.8644C21.7962 9.63683 21.5387 8.53197 21.9894 7.67263C22.5044 6.62916 23.9208 6.07673 25.6592 6.07673C27.0756 6.07673 28.8139 6.44501 30.4235 7.18158C32.2906 8.04092 33.7714 9.20716 34.7371 10.4962C35.5741 11.7238 35.8317 12.89 35.381 13.7494ZM39.5659 15.2225C39.3083 15.3453 39.1796 15.5908 39.2439 15.8363C39.5015 17.4322 39.5015 19.5192 39.0508 19.8261C38.9864 19.8875 38.7289 19.7647 38.6645 19.7647C37.6344 19.2737 36.7974 18.4757 36.4111 17.4322C36.0248 16.3887 36.0892 15.2839 36.6042 14.2404C37.1193 13.2583 37.9563 12.4604 39.0508 12.0921C39.5015 11.9079 40.0165 11.8465 40.5316 11.8465C41.1754 11.8465 41.8193 11.9693 42.3987 12.2762C42.4631 12.3376 42.7206 12.399 42.7206 12.5217C42.6562 13.1355 41.0467 14.4246 39.5659 15.2225Z" fill="currentColor"/>
<path d="M36.4111 37.5038C36.6686 37.6266 36.9262 37.7494 37.1837 37.8721C37.8275 38.1176 38.5357 38.2404 39.2439 38.2404C40.0165 38.2404 40.7891 38.1176 41.4973 37.8107C42.3343 37.4425 42.5275 36.9514 42.5918 36.5217C42.6562 35.11 40.4028 33.5754 39.3083 32.8389C39.5015 31.5499 39.8234 28.9105 38.6645 28.0511C38.3426 27.8056 37.7631 27.6215 36.9262 27.9284C35.5741 28.4808 34.4796 29.5857 33.9646 30.8747C33.8358 31.1202 33.7714 31.3657 33.707 31.6113C32.8057 30.6292 31.3249 30.1995 29.9728 30.7519L19.8647 34.9872C19.0921 35.2941 18.5127 35.9079 18.1908 36.6445C17.9976 37.1356 17.9332 37.6266 17.9976 38.1176C17.7401 37.9949 17.5469 37.8721 17.2894 37.8107C15.873 37.3197 14.3278 37.3197 12.9758 37.9335C12.1388 38.3018 11.9456 38.7928 11.8813 39.2225C11.8169 40.6343 14.0703 42.1688 15.1648 42.9054C14.9716 44.1944 14.6497 46.8338 15.8086 47.6931C16.0018 47.8159 16.3237 48 16.71 48C16.9675 48 17.225 47.9386 17.5469 47.8159C19.2209 47.0793 20.3798 45.7289 20.7661 44.133C21.088 44.5013 21.5387 44.8082 21.9894 44.9923C22.3757 45.1151 22.7619 45.1765 23.1482 45.1765C23.5989 45.1765 24.0496 45.1151 24.4359 44.9309L34.544 40.6957C35.8317 40.1432 36.6042 38.7928 36.4111 37.5038ZM19.2853 41.2481C20.251 43.335 19.2853 45.7903 17.0319 46.711C16.9675 46.711 16.71 46.8338 16.6456 46.7724C16.1949 46.4041 16.2593 44.3785 16.5812 42.7826C16.6456 42.5371 16.5168 42.2916 16.2593 42.1688C14.7785 41.3095 13.1689 39.9591 13.2333 39.4067C13.2333 39.2839 13.4908 39.2225 13.5552 39.1611C14.6497 38.7315 15.8086 38.6701 16.9031 39.0997C17.9332 39.468 18.7702 40.2046 19.2853 41.2481ZM34.9947 37.1969C35.4454 38.1176 34.9947 39.1611 34.0289 39.5908L23.9208 43.8261C23.4702 44.0102 22.9551 44.0102 22.44 43.8875C21.9894 43.7033 21.6031 43.3964 21.4099 42.9054L19.414 38.6087C19.2209 38.179 19.2209 37.688 19.3497 37.1969C19.5428 36.7673 19.8647 36.399 20.3798 36.2148L30.4879 31.9795C30.7454 31.8568 31.0029 31.7954 31.2605 31.7954C31.9687 31.7954 32.6769 32.2251 32.9988 32.9003L34.9947 37.1969ZM35.1878 34.5575C34.7371 33.5754 34.6728 32.4092 35.1234 31.3657C35.5741 30.3222 36.3467 29.5243 37.4412 29.0946C37.5056 29.0946 37.6344 29.0332 37.7631 29.0332C37.8275 29.0332 37.8275 29.0332 37.8275 29.0332C38.2782 29.4015 38.2138 31.4271 37.8919 33.023C37.8275 33.2685 37.9563 33.5141 38.2138 33.6368C39.6946 34.4962 41.3042 35.8465 41.2398 36.399C41.2398 36.5217 40.9823 36.5831 40.9179 36.6445C39.8234 37.0742 38.6645 37.1356 37.57 36.7059C36.5399 36.3376 35.7029 35.5396 35.1878 34.5575Z" fill="currentColor"/>
<path d="M6.73063 8.47059C5.12106 8.47059 3.76902 9.75959 3.76902 11.2941C3.76902 12.8286 5.12106 14.1176 6.73063 14.1176C8.3402 14.1176 9.69224 12.8286 9.69224 11.2941C9.69224 9.75959 8.3402 8.47059 6.73063 8.47059ZM6.73063 9.69821C7.63199 9.69821 8.40459 10.4348 8.40459 11.2941C8.40459 12.1535 7.63199 12.89 6.73063 12.89C5.82927 12.89 5.05668 12.1535 5.05668 11.2941C5.05668 10.4348 5.76489 9.69821 6.73063 9.69821Z" fill="currentColor"/>
<path d="M9.04841 37.9949C10.658 37.9949 12.01 36.7059 12.01 35.1714C12.01 33.6368 10.658 32.3478 9.04841 32.3478C7.43884 32.3478 6.08681 33.6368 6.08681 35.1714C6.08681 36.7059 7.37446 37.9949 9.04841 37.9949ZM7.37446 35.2327C7.37446 34.3734 8.14705 33.6368 9.04841 33.6368C9.94977 33.6368 10.7224 34.3734 10.7224 35.2327C10.7224 36.0921 9.94977 36.8286 9.04841 36.8286C8.14705 36.8286 7.37446 36.0921 7.37446 35.2327Z" fill="currentColor"/>
<path d="M48 24.6138C48 23.0793 46.648 21.7903 45.0384 21.7903C43.4288 21.7903 42.0768 23.0793 42.0768 24.6138C42.0768 26.1483 43.4288 27.4373 45.0384 27.4373C46.648 27.4373 48 26.1483 48 24.6138ZM46.7123 24.6138C46.7123 25.4731 45.9398 26.2097 45.0384 26.2097C44.137 26.2097 43.3644 25.4731 43.3644 24.6138C43.3644 23.7545 44.137 23.0179 45.0384 23.0179C45.9398 23.0179 46.7123 23.7545 46.7123 24.6138Z" fill="currentColor"/>
<path d="M43.3001 2.20972C41.6905 2.20972 40.3384 3.49872 40.3384 5.03325C40.3384 6.56777 41.6905 7.85678 43.3001 7.85678C44.9096 7.85678 46.2617 6.56777 46.2617 5.03325C46.2617 3.49872 44.9096 2.20972 43.3001 2.20972ZM44.974 5.03325C44.974 5.89258 44.2014 6.62916 43.3001 6.62916C42.3987 6.62916 41.6261 5.89258 41.6261 5.03325C41.6261 4.17391 42.3987 3.43734 43.3001 3.43734C44.2014 3.43734 44.974 4.11253 44.974 5.03325Z" fill="currentColor"/>
<path d="M35.5097 0C33.9002 0 32.5481 1.289 32.5481 2.82353C32.5481 4.35806 33.9002 5.64706 35.5097 5.64706C37.1193 5.64706 38.4714 4.35806 38.4714 2.82353C38.4714 1.289 37.1193 0 35.5097 0ZM35.5097 1.22762C36.4111 1.22762 37.1837 1.96419 37.1837 2.82353C37.1837 3.68286 36.4111 4.41944 35.5097 4.41944C34.6084 4.41944 33.8358 3.68286 33.8358 2.82353C33.8358 1.96419 34.6084 1.22762 35.5097 1.22762Z" fill="currentColor"/>
<path d="M9.69224 44.0102C9.69224 42.4757 8.3402 41.1867 6.73063 41.1867C5.12106 41.1867 3.76902 42.4757 3.76902 44.0102C3.76902 45.5448 5.12106 46.8338 6.73063 46.8338C8.3402 46.8338 9.69224 45.6061 9.69224 44.0102ZM8.40459 44.0102C8.40459 44.8696 7.63199 45.6061 6.73063 45.6061C5.82927 45.6061 5.05668 44.8696 5.05668 44.0102C5.05668 43.1509 5.82927 42.4143 6.73063 42.4143C7.63199 42.4143 8.40459 43.1509 8.40459 44.0102Z" fill="currentColor"/>
</svg>
