<svg width="48" height="48" viewBox="0 0 48 48" fill="none" xmlns="http://www.w3.org/2000/svg">
<path d="M29.4962 11.2144C29.313 11.3992 29.2519 11.5841 29.2519 11.8306L30.7786 46.3363C30.8397 47.2606 31.7557 48 32.9771 48H44.2748C45.4351 48 46.4122 47.2606 46.4733 46.3363L48 11.8306C48 11.5841 47.9389 11.3992 47.7557 11.2144C47.5725 11.0295 47.2672 10.9063 46.9618 10.9063H33.0382L32.1221 8.25674C38.4733 5.91528 40.2443 2.71117 40.3053 2.58793C40.4275 2.40308 40.4275 2.21823 40.3053 2.03338C40.2443 1.84852 40.0611 1.72529 39.8779 1.72529L28.9466 0C28.7634 0 28.5191 0.0616176 28.3969 0.184852L20.8855 8.31836C20.7634 8.44159 20.7023 8.68806 20.7634 8.87291C20.8244 9.05777 20.9466 9.24262 21.1298 9.30424C21.1908 9.36585 22.3511 9.85879 24.5496 9.85879C26.1374 9.85879 28.3359 9.61232 31.0229 8.68806L31.7557 10.9063H30.2901C29.9847 10.9063 29.6794 11.0295 29.4962 11.2144ZM31.2061 7.33248C26.7481 8.87291 23.8168 8.68806 22.4733 8.44159L29.1298 1.23235L38.7176 2.77279C37.8015 3.82028 35.6031 5.79204 31.2061 7.33248ZM32.1832 12.1386L33.771 16.8216C33.7099 16.8216 33.6489 16.8216 33.5267 16.8216C32.2443 16.8216 31.3893 16.5751 30.7176 16.3286L30.5344 12.1386H32.1832ZM46.7786 12.1386L46.6565 15.466C45.6183 14.9114 44.3969 14.4801 42.4427 14.4801C40.1832 14.4801 38.9008 15.0963 37.7405 15.7741C36.9466 16.2054 36.1527 16.5751 35.0534 16.7599L33.4656 12.2003H46.7786V12.1386ZM30.7786 17.6842C31.5115 17.9307 32.3664 18.1155 33.5878 18.1155C33.8321 18.1155 34.0153 18.1155 34.1985 18.1155L37.4351 27.6046C37.4962 27.8511 37.7405 28.0359 37.9847 28.0359C38.0458 28.0359 38.1069 28.0359 38.1679 27.9743C38.4733 27.8511 38.6565 27.543 38.5344 27.1733L35.3588 17.9307C36.5191 17.6842 37.374 17.2529 38.229 16.8216C39.3282 16.267 40.4275 15.7125 42.3817 15.7125C44.3359 15.7125 45.4351 16.267 46.5343 16.8216L45.2519 46.2747C45.2519 46.4596 44.8855 46.706 44.2748 46.706H33.0382C32.4275 46.706 32.0611 46.3979 32.0611 46.2747L30.7786 17.6842Z" fill="currentColor"/>
<path d="M32.9771 32.7189C32.7328 32.9653 32.6107 33.2734 32.6107 33.5815C32.6107 33.8896 32.7328 34.2593 32.9771 34.4442L34.8092 36.2927C35.0534 36.5392 35.3588 36.6624 35.6641 36.6624C35.9695 36.6624 36.3359 36.5392 36.5191 36.2927L38.3511 34.4442C38.5954 34.1977 38.7176 33.8896 38.7176 33.5815C38.7176 33.2734 38.5954 32.9037 38.3511 32.7189L36.5191 30.8703C36.2748 30.6239 35.9695 30.5006 35.6641 30.5006C35.3588 30.5006 34.9924 30.6239 34.8092 30.8703L32.9771 32.7189ZM33.8321 33.6431L35.6641 31.7946L37.4962 33.6431L35.6641 35.4917L33.8321 33.6431Z" fill="currentColor"/>
<path d="M36.2137 40.113C36.0305 40.3594 35.9084 40.7291 35.9695 41.0372L36.3359 43.5635C36.3969 44.1797 36.9466 44.611 37.5573 44.611C37.6183 44.611 37.6794 44.611 37.7405 44.611L40.2443 44.2413C40.916 44.1181 41.4046 43.5019 41.2824 42.8241L40.916 40.2978C40.7939 39.62 40.1832 39.1271 39.5114 39.2503L37.0076 39.62C36.7023 39.6816 36.3969 39.8049 36.2137 40.113ZM37.1908 40.8524L39.7557 40.4827L40.1221 43.0706L37.6183 43.4403L37.1908 40.8524Z" fill="currentColor"/>
<path d="M41.1603 33.2118L43.6641 32.8421C43.9695 32.7805 44.2748 32.5956 44.458 32.3492C44.6412 32.1027 44.7634 31.733 44.7023 31.4249L44.3359 28.8986C44.2748 28.5905 44.0916 28.2824 43.8473 28.0976C43.6031 27.9127 43.2366 27.7895 42.9313 27.8511L40.4275 28.2208C40.1221 28.2824 39.8168 28.4673 39.6336 28.7137C39.4504 28.9602 39.3282 29.3299 39.3893 29.638L39.7557 32.1643C39.8168 32.7805 40.3664 33.2118 40.9771 33.2118C41.0382 33.2118 41.0992 33.2118 41.1603 33.2118ZM43.4809 31.6098L40.9771 31.9795L40.6107 29.3915L43.1756 29.0218L43.4809 31.6098C43.542 31.6098 43.542 31.6098 43.4809 31.6098Z" fill="currentColor"/>
<path d="M43.6031 22.4904C43.7252 22.1823 43.7252 21.8126 43.6031 21.5045L42.626 19.1014C42.5038 18.7933 42.2595 18.5469 41.9542 18.4236C41.6489 18.3004 41.2824 18.3004 40.9771 18.4236L38.5954 19.4095C38.2901 19.5327 38.0458 19.7792 37.9237 20.0873C37.8015 20.3954 37.8015 20.7651 37.9237 21.0732L38.9008 23.4762C39.084 23.9692 39.5725 24.2773 40.0611 24.2773C40.2443 24.2773 40.3664 24.2773 40.5496 24.154L42.9313 23.1682C43.2366 23.0449 43.4809 22.7985 43.6031 22.4904ZM42.5038 21.9974L40.1221 23.0449L39.084 20.6418L41.4656 19.5944L42.5038 21.9974Z" fill="currentColor"/>
<path d="M12.2748 32.7189C12.0305 32.9653 11.9084 33.2734 11.9084 33.5815C11.9084 33.8896 12.0305 34.2593 12.2748 34.4442L14.1069 36.2927C14.3511 36.5392 14.6565 36.6624 14.9618 36.6624C15.2672 36.6624 15.6336 36.5392 15.8168 36.2927L17.6489 34.4442C17.8931 34.1977 18.0153 33.8896 18.0153 33.5815C18.0153 33.2734 17.8931 32.9037 17.6489 32.7189L15.8168 30.8703C15.5725 30.6239 15.2672 30.5006 14.9618 30.5006C14.6565 30.5006 14.2901 30.6239 14.1069 30.8703L12.2748 32.7189ZM13.1298 33.6431L14.9618 31.7946L16.7939 33.6431L14.9618 35.4917L13.1298 33.6431Z" fill="currentColor"/>
<path d="M15.5115 40.113C15.3282 40.3594 15.2061 40.7291 15.2672 41.0372L15.6336 43.5635C15.6947 44.1797 16.2443 44.611 16.855 44.611C16.916 44.611 16.9771 44.611 17.0382 44.611L19.542 44.2413C20.2137 44.1181 20.7023 43.5019 20.5802 42.8241L20.2137 40.2978C20.0916 39.62 19.4809 39.1271 18.8092 39.2503L16.3053 39.62C16 39.6816 15.7557 39.8049 15.5115 40.113ZM16.4886 40.8524L19.0534 40.4827L19.4198 43.0706L16.916 43.4403L16.4886 40.8524Z" fill="currentColor"/>
<path d="M20.458 33.2118L22.9618 32.8421C23.2672 32.7805 23.5725 32.5956 23.7557 32.3492C23.9389 32.1027 24.0611 31.733 24 31.4249L23.6336 28.8986C23.5725 28.5905 23.3893 28.2824 23.145 28.0976C22.9008 27.9127 22.5344 27.7895 22.229 27.8511L19.7252 28.2208C19.4198 28.2824 19.1145 28.4673 18.9313 28.7137C18.7481 28.9602 18.626 29.3299 18.687 29.638L19.0534 32.1643C19.1145 32.7805 19.6641 33.2118 20.2748 33.2118C20.3359 33.2118 20.3969 33.2118 20.458 33.2118ZM22.8397 31.6098L20.3359 31.9795L19.9695 29.3915L22.5344 29.0218L22.8397 31.6098Z" fill="currentColor"/>
<path d="M22.9008 22.4904C23.0229 22.1823 23.0229 21.8126 22.9008 21.5045L21.9237 19.1014C21.8015 18.7933 21.5573 18.5469 21.2519 18.4236C20.9466 18.3004 20.5802 18.3004 20.2748 18.4236L17.8931 19.4095C17.5878 19.5327 17.3435 19.7792 17.2214 20.0873C17.0992 20.3954 17.0992 20.7651 17.2214 21.0732L18.1985 23.4762C18.3817 23.9692 18.8702 24.2773 19.3588 24.2773C19.542 24.2773 19.6641 24.2773 19.8473 24.154L22.229 23.1682C22.5344 23.0449 22.7786 22.7985 22.9008 22.4904ZM21.8015 21.9974L19.4198 23.0449L18.4427 20.6418L20.8244 19.5944L21.8015 21.9974Z" fill="currentColor"/>
<path d="M0 8.87291C0.0610687 9.05777 0.183206 9.24262 0.366412 9.30424C0.427481 9.36585 1.58779 9.85879 3.78626 9.85879C5.37405 9.85879 7.57252 9.61232 10.2595 8.68806L10.9924 10.9063H9.52672C9.22137 10.9063 8.9771 11.0295 8.73282 11.2144C8.54962 11.3992 8.48855 11.5841 8.48855 11.8306L10.0153 46.3363C10.0763 47.2606 10.9924 48 12.2137 48H23.5114C24.6718 48 25.6489 47.2606 25.7099 46.3363L27.2366 11.8306C27.2366 11.5841 27.1756 11.3992 26.9924 11.2144C26.8092 11.0295 26.5038 10.9063 26.1985 10.9063H12.3359L11.4198 8.25674C17.771 5.91528 19.542 2.71117 19.6031 2.58793C19.7252 2.40308 19.7252 2.21823 19.6031 2.03338C19.542 1.84852 19.3588 1.72529 19.1756 1.72529L8.30534 0C8.12214 0 7.87786 0.0616176 7.75573 0.184852L0.183206 8.31836C0.0610688 8.50321 0 8.68806 0 8.87291ZM26.1374 12.1386L26.0153 15.466C24.9771 14.9114 23.7557 14.4801 21.8015 14.4801C19.542 14.4801 18.2595 15.0963 17.0992 15.7741C16.3053 16.2054 15.5115 16.5751 14.4122 16.7599L12.8244 12.2003H26.1374V12.1386ZM10.0763 17.6842C10.8092 17.9307 11.6641 18.1155 12.8855 18.1155C13.1298 18.1155 13.313 18.1155 13.4962 18.1155L16.7328 27.6046C16.7939 27.8511 17.0382 28.0359 17.2824 28.0359C17.3435 28.0359 17.4046 28.0359 17.4656 27.9743C17.771 27.8511 17.9542 27.543 17.8321 27.1733L14.6565 17.9307C15.8168 17.6842 16.6718 17.2529 17.5267 16.8216C18.626 16.267 19.7252 15.7125 21.6794 15.7125C23.6336 15.7125 24.7328 16.267 25.8321 16.8216L24.5496 46.2747C24.5496 46.4596 24.1832 46.706 23.5725 46.706H12.3359C11.7252 46.706 11.3588 46.3979 11.3588 46.2747L10.0763 17.6842ZM11.4809 12.1386L13.0687 16.8216C13.0076 16.8216 12.9466 16.8216 12.8244 16.8216C11.542 16.8216 10.687 16.5751 10.0153 16.3286L9.83206 12.1386H11.4809ZM1.77099 8.44159L8.42748 1.23235L18.0153 2.77279C17.0992 3.82028 14.9008 5.79204 10.5038 7.33248C6.0458 8.87291 3.1145 8.68806 1.77099 8.44159Z" fill="currentColor"/>
</svg>
