<svg width="48" height="48" viewBox="0 0 48 48" fill="none" xmlns="http://www.w3.org/2000/svg">
<path d="M2.29074 16.0158L7.02929 23.5787C7.13875 23.7536 7.33016 23.8596 7.53592 23.8596C7.53891 23.8596 7.5425 23.8596 7.54549 23.8596C7.75485 23.856 7.94685 23.744 8.05273 23.5631L12.1309 16.5751L17.7224 23.0589C17.8367 23.1924 18.003 23.2667 18.1752 23.2667C18.2093 23.2667 18.2428 23.2637 18.2769 23.2577C18.4839 23.2218 18.6567 23.0804 18.7327 22.8846L21.5273 15.6858L27.2564 20.782C27.3676 20.8803 27.5094 20.933 27.6535 20.933C27.7127 20.933 27.7726 20.924 27.8306 20.906C28.0304 20.8437 28.1835 20.682 28.2343 20.4784L30.228 12.4454L36.9416 17.0206C37.0421 17.0889 37.1599 17.1242 37.2778 17.1242C37.3615 17.1242 37.4447 17.1069 37.523 17.0715C37.7126 16.9859 37.8442 16.8086 37.8711 16.602L38.9209 8.43246L45.1841 11.8124C45.2727 11.8603 45.3708 11.8843 45.4683 11.8843C45.5705 11.8843 45.6728 11.8579 45.7643 11.8058C45.9438 11.7034 46.0574 11.516 46.0658 11.3094L46.4325 2.15885C47.2902 1.48813 47.7663 1.07552 47.7975 1.04798C48.0451 0.829395 48.069 0.450918 47.8507 0.202992C47.6324 -0.0455326 47.2531 -0.0688878 47.0067 0.149694C46.7908 0.340729 25.118 19.1771 0.709828 14.5426C0.380845 14.4803 0.0721992 14.6947 0.0105896 15.0193C-0.0510199 15.3444 0.16252 15.6576 0.486718 15.7193C1.08965 15.8331 1.6908 15.9283 2.29074 16.0158ZM6.89411 21.109L3.82021 16.2038C4.81553 16.3122 5.80607 16.3918 6.78824 16.4308L6.89411 21.109ZM13.3966 16.2104C14.3997 16.1068 15.3944 15.9822 16.373 15.8217L17.0878 20.491L13.3966 16.2104ZM18.3206 20.6377L17.5502 15.6079C18.5557 15.4199 19.5468 15.2073 20.5212 14.9684L18.3206 20.6377ZM25.0599 13.6581L26.4231 18.4387L22.0722 14.5683C23.089 14.2887 24.0838 13.982 25.0599 13.6581ZM27.5812 18.1363L26.1928 13.2682C27.1714 12.9227 28.1291 12.561 29.0586 12.1831L27.5812 18.1363ZM33.8516 10.0194L35.7973 14.7917L30.853 11.4219C31.8902 10.9656 32.8903 10.4967 33.8516 10.0194ZM36.9428 14.4318L34.9235 9.47926C35.9248 8.96185 36.8752 8.44084 37.779 7.92463L36.9428 14.4318ZM41.591 5.59628L43.7492 9.67628L39.086 7.15989C39.982 6.62391 40.8176 6.09992 41.591 5.59628ZM44.9461 9.38044L42.5941 4.93275C43.5948 4.25784 44.4693 3.63563 45.1979 3.09606L44.9461 9.38044ZM10.8407 16.4104L8.09101 21.1216L7.98573 16.4577C8.18372 16.4601 8.38291 16.4709 8.58029 16.4709C9.33935 16.4709 10.0918 16.4469 10.8407 16.4104Z" fill="currentColor"/>
<path d="M47.5038 39.97C47.8292 39.9131 48.0475 39.6035 47.9907 39.2777C47.9344 38.9519 47.6258 38.7351 47.2992 38.7902C22.8408 43.0367 1.45572 23.8643 1.24278 23.6703C0.999333 23.4475 0.620703 23.4655 0.398191 23.7098C0.175679 23.9542 0.193624 24.3333 0.437669 24.5554C0.468773 24.5836 0.935929 25.0028 1.78411 25.6879L2.01021 34.8432C2.01559 35.0498 2.12625 35.239 2.3039 35.3444C2.39721 35.3995 2.50308 35.4276 2.60836 35.4276C2.70287 35.4276 2.79737 35.4055 2.88411 35.3606L9.19699 32.0794L10.1211 40.2646C10.1445 40.4718 10.2737 40.6515 10.4621 40.7395C10.5428 40.7772 10.629 40.7964 10.7157 40.7964C10.8305 40.7964 10.9454 40.7628 11.0447 40.6976L17.8259 36.2277L19.6957 44.2919C19.743 44.4961 19.8931 44.6602 20.0923 44.7255C20.1533 44.7452 20.2155 44.7554 20.2783 44.7554C20.4195 44.7554 20.5589 44.7051 20.6683 44.6105L26.4728 39.6059L29.1555 46.8484C29.2285 47.0454 29.3989 47.1897 29.6053 47.2287C29.6424 47.2359 29.6795 47.2395 29.7165 47.2395C29.8852 47.2395 30.0485 47.1676 30.1634 47.0388L35.8518 40.6443L39.8211 47.6952C39.924 47.8778 40.1142 47.9928 40.3236 47.9994C40.3301 48 40.3361 48 40.3421 48C40.5443 48 40.7333 47.8976 40.8439 47.7269L45.6932 40.2436C46.2943 40.1646 46.8978 40.0748 47.5038 39.97ZM39.8193 45.2531L37.139 40.4922C38.0835 40.5538 39.0345 40.5952 39.9964 40.5976L39.8193 45.2531ZM34.5897 40.2604L30.8363 44.4799L31.6235 39.8172C32.5996 39.9927 33.5884 40.1412 34.5897 40.2604ZM25.9488 38.4764L21.5356 42.2809L22.9706 37.5272C23.9408 37.8662 24.9373 38.1806 25.9488 38.4764ZM17.2158 35.1953L12.2218 38.4866L14.24 33.7455C15.194 34.2383 16.1864 34.7228 17.2158 35.1953ZM9.05164 30.8045L4.35257 33.2472L6.57111 29.2025C7.33554 29.7176 8.16518 30.2547 9.05164 30.8045ZM5.57877 28.5228L3.15985 32.9316L3.00493 26.6454C3.72451 27.1964 4.58943 27.833 5.57877 28.5228ZM10.346 31.589C11.2409 32.1196 12.1842 32.6549 13.1771 33.1879L11.0818 38.1093L10.346 31.589ZM18.9965 35.9828C19.9212 36.3762 20.8711 36.7547 21.8455 37.1164L20.383 41.9612L18.9965 35.9828ZM27.4872 38.901C28.4586 39.1555 29.4438 39.3909 30.4469 39.5951L29.6005 44.6069L27.4872 38.901ZM41.0156 45.259L41.1933 40.5772C42.1748 40.5532 43.1636 40.4993 44.1595 40.4071L41.0156 45.259Z" fill="currentColor"/>
</svg>
