<svg width="48" height="48" viewBox="0 0 48 48" fill="none" xmlns="http://www.w3.org/2000/svg">
<path d="M0 35.7926V35.9863C0 35.9863 0 35.9863 0 36.0509C0 36.1155 0.0657398 36.1155 0.0657398 36.1801L0.13148 36.2447C0.197219 36.3093 0.197219 36.3093 0.262958 36.3093C0.262958 36.3093 0.262958 36.3093 0.328698 36.3093L29.9772 47.9354C30.043 47.9354 30.1087 48 30.2402 48C30.3059 48 30.4374 48 30.5031 47.9354C30.6346 47.8708 30.7661 47.7416 30.8318 47.6125L33.9873 39.7971L47.4639 36.7614C47.7926 36.6968 48.0556 36.3093 47.9899 35.9863L39.7067 0.52668C39.6409 0.203732 39.2465 -0.0546259 38.9178 0.00996366L14.5284 5.50007C14.3312 5.56466 14.1997 5.62925 14.134 5.75843C14.0683 5.88761 14.0025 6.08138 14.0683 6.27515L16.7636 17.7721L9.13779 14.801C9.07205 14.801 8.94058 14.7364 8.87484 14.7364C8.67762 14.7364 8.54614 14.801 8.41466 14.9302C8.34892 14.9947 8.28318 15.0593 8.28318 15.1239L0 35.4696V35.5342C0 35.5988 0 35.5988 0 35.6634C0 35.728 0 35.728 0 35.7926ZM8.87484 17.1262L15.2516 31.7234L1.70923 34.8237L8.87484 17.1262ZM36.7484 27.073L20.708 33.8549C19.9848 34.1778 19.2617 34.1778 18.5385 33.8549C17.8154 33.5965 17.2895 33.0798 17.0265 32.3693L10.1239 16.6095L36.7484 27.073ZM29.9115 46.4498L2.8268 35.8572L15.7775 32.886C16.2377 33.8549 17.0265 34.63 18.0126 35.0821C18.5385 35.2759 18.9987 35.405 19.5246 35.405C20.0506 35.405 20.6422 35.2759 21.1681 35.0821L37.2743 28.2356L31.4235 42.6391L29.9115 46.4498ZM15.5145 6.66269L38.5891 1.49552L46.5436 35.6634L34.6447 38.3762L36.8141 32.9506L40.9557 32.0464C41.2844 31.9818 41.5474 31.5943 41.4816 31.2713C41.4159 30.9484 41.0215 30.69 40.6928 30.7546L37.4058 31.4651L39.0493 27.4605L39.8382 27.2668C40.1669 27.2022 40.4298 26.8146 40.3641 26.4917C40.2983 26.1687 39.9039 25.9104 39.5752 25.975L38.3261 26.2333L32.4096 23.9081L38.7206 22.4871C39.0493 22.4225 39.3122 22.035 39.2465 21.7121C39.1808 21.3891 38.7863 21.1307 38.4576 21.1953L30.3059 23.0038L24.3894 20.6786L37.6687 17.7075C37.9974 17.6429 38.2604 17.2554 38.1947 16.9324C38.1289 16.6095 37.7345 16.3511 37.4058 16.4157L22.2857 19.839L18.2756 18.2888L15.5145 6.66269Z" fill="currentColor"/>
<path d="M30.3717 13.8967L30.6346 13.1216V13.0571H30.5689L29.8457 13.3154L29.1884 12.8633H29.1226L29.0569 12.9279V13.7029L28.3995 14.1551C28.3995 14.1551 28.3337 14.2197 28.3995 14.2197C28.3995 14.2197 28.3995 14.2843 28.4652 14.2843L29.2541 14.478L29.517 15.1885L29.5828 15.2531C29.5828 15.2531 29.6485 15.2531 29.6485 15.1885L30.1087 14.5426H30.8976C30.8976 14.5426 30.9633 14.5426 30.9633 14.478C30.9633 14.4134 30.9633 14.4134 30.9633 14.4134L30.3717 13.8967Z" fill="currentColor"/>
<path d="M29.4513 9.44004L30.1744 10.4089H30.2402C30.2402 10.4089 30.3059 10.4089 30.3059 10.3443L30.6346 9.18168L31.8179 8.79414L31.8837 8.72955C31.8837 8.72955 31.8837 8.66496 31.8179 8.66496L30.7661 8.01907V6.79187C30.7661 6.79187 30.7661 6.72728 30.7004 6.72728H30.6346L29.6485 7.50235L28.4652 7.11481H28.3995V7.1794L28.8597 8.34202L28.1365 9.31086V9.37545L28.2023 9.44004H29.4513Z" fill="currentColor"/>
<path d="M23.3375 12.0882L22.9431 13.7029V13.7675H23.0088L24.5208 13.0571L25.9671 13.8967C25.9671 13.8967 25.9671 13.8967 26.0329 13.8967C26.0329 13.8967 26.0329 13.8967 26.0986 13.8967L26.1643 13.8321L26.0329 12.2174L27.2819 11.1194C27.2819 11.1194 27.3476 11.0548 27.2819 11.0548C27.2162 11.0548 27.2162 10.9902 27.2162 10.9902L25.5727 10.6672L24.9153 9.18168L24.8495 9.11709C24.8495 9.11709 24.7838 9.11709 24.7838 9.18168L23.9949 10.6027L22.2857 10.7318C22.2857 10.7318 22.22 10.7318 22.22 10.7964V10.861L23.3375 12.0882Z" fill="currentColor"/>
<path d="M21.1024 28.4294C21.1024 28.4294 21.1024 28.3648 21.0366 28.3648H20.9709L20.5107 28.6877L19.9848 28.494H19.9191V28.5585L20.1163 29.0753L19.7876 29.5274V29.592L19.8533 29.6566H20.445L20.7737 30.1087L20.8394 30.1733C20.8394 30.1733 20.9052 30.1733 20.9052 30.1087L21.0366 29.592L21.5626 29.3982L21.6283 29.3336C21.6283 29.3336 21.6283 29.269 21.5626 29.269L21.1024 28.9461V28.4294Z" fill="currentColor"/>
<path d="M23.2061 27.2022L22.9431 28.0418V28.1064H23.0088L23.8635 27.7835L24.5866 28.3002C24.5866 28.3002 24.5866 28.3002 24.6523 28.3002C24.6523 28.3002 24.6523 28.3002 24.7181 28.3002L24.7838 28.2356V27.3959L25.5069 26.8792C25.5069 26.8792 25.5727 26.8146 25.5069 26.8146C25.4412 26.8146 25.5069 26.75 25.4412 26.75L24.5866 26.4917L24.2579 25.652L24.1922 25.5874C24.1922 25.5874 24.1264 25.5874 24.1264 25.652L23.6005 26.3625H22.7459C22.7459 26.3625 22.6801 26.3625 22.6801 26.4271V26.4917L23.2061 27.2022Z" fill="currentColor"/>
<path d="M18.9987 25.975L19.1302 27.1376C19.1302 27.1376 19.1302 27.2022 19.1959 27.2022H19.2617L20.182 26.4271L21.3653 26.6854H21.4311V26.6209L20.9052 25.5228L21.4968 24.4894V24.4248L21.4311 24.3602L20.2478 24.4894L19.4589 23.5852H19.3932C19.3932 23.5852 19.3274 23.5852 19.3274 23.6497L19.0645 24.8124L17.9469 25.2645L17.8812 25.3291C17.8812 25.3291 17.8812 25.3937 17.9469 25.3937L18.9987 25.975Z" fill="currentColor"/>
</svg>
