<svg width="191" height="24" viewBox="0 0 191 24" fill="none" xmlns="http://www.w3.org/2000/svg">
<path d="M35.192 20.12C34.824 20.12 34.528 20.008 34.304 19.784C34.08 19.544 33.968 19.24 33.968 18.872V4.28C33.968 3.912 34.072 3.624 34.28 3.416C34.504 3.192 34.808 3.08 35.192 3.08H43.784C44.552 3.08 44.936 3.416 44.936 4.088C44.936 4.76 44.552 5.096 43.784 5.096H36.416V10.4H43.304C44.072 10.4 44.456 10.736 44.456 11.408C44.456 12.08 44.072 12.416 43.304 12.416H36.416V18.872C36.416 19.256 36.304 19.56 36.08 19.784C35.872 20.008 35.576 20.12 35.192 20.12ZM56.0668 17.048C56.2908 17.048 56.4748 17.136 56.6188 17.312C56.7628 17.488 56.8348 17.712 56.8348 17.984C56.8348 18.448 56.5468 18.84 55.9708 19.16C55.4108 19.48 54.7948 19.728 54.1228 19.904C53.4668 20.08 52.8348 20.168 52.2268 20.168C50.3708 20.168 48.9068 19.632 47.8348 18.56C46.7628 17.472 46.2268 15.992 46.2268 14.12C46.2268 12.92 46.4588 11.856 46.9228 10.928C47.4028 10 48.0668 9.28 48.9148 8.768C49.7788 8.256 50.7548 8 51.8428 8C53.4108 8 54.6508 8.504 55.5628 9.512C56.4748 10.52 56.9308 11.88 56.9308 13.592C56.9308 14.232 56.6428 14.552 56.0668 14.552H48.6508C48.8108 17.032 50.0028 18.272 52.2268 18.272C52.8188 18.272 53.3308 18.192 53.7628 18.032C54.1948 17.872 54.6508 17.664 55.1308 17.408C55.1788 17.376 55.3068 17.312 55.5148 17.216C55.7388 17.104 55.9228 17.048 56.0668 17.048ZM51.8908 9.776C50.9628 9.776 50.2188 10.072 49.6588 10.664C49.0988 11.256 48.7628 12.088 48.6508 13.16H54.8428C54.7948 12.072 54.5148 11.24 54.0028 10.664C53.5068 10.072 52.8028 9.776 51.8908 9.776ZM63.6819 20.168C62.0499 20.168 60.7139 19.832 59.6739 19.16C59.3859 18.984 59.1779 18.8 59.0499 18.608C58.9379 18.416 58.8819 18.2 58.8819 17.96C58.8819 17.704 58.9539 17.488 59.0979 17.312C59.2419 17.136 59.4259 17.048 59.6499 17.048C59.8579 17.048 60.1859 17.176 60.6339 17.432C61.1139 17.688 61.5779 17.896 62.0259 18.056C62.4899 18.216 63.0659 18.296 63.7539 18.296C64.5219 18.296 65.1219 18.16 65.5539 17.888C65.9859 17.616 66.2019 17.232 66.2019 16.736C66.2019 16.416 66.1139 16.16 65.9379 15.968C65.7779 15.776 65.4899 15.608 65.0739 15.464C64.6579 15.304 64.0419 15.136 63.2259 14.96C61.8179 14.656 60.8019 14.248 60.1779 13.736C59.5699 13.208 59.2659 12.496 59.2659 11.6C59.2659 10.912 59.4659 10.296 59.8659 9.752C60.2659 9.192 60.8179 8.76 61.5219 8.456C62.2259 8.152 63.0259 8 63.9219 8C64.5619 8 65.1859 8.088 65.7939 8.264C66.4019 8.424 66.9379 8.664 67.4019 8.984C67.9299 9.336 68.1939 9.744 68.1939 10.208C68.1939 10.464 68.1139 10.68 67.9539 10.856C67.8099 11.032 67.6339 11.12 67.4259 11.12C67.2819 11.12 67.1379 11.088 66.9939 11.024C66.8499 10.96 66.6579 10.856 66.4179 10.712C65.9859 10.456 65.5779 10.256 65.1939 10.112C64.8259 9.968 64.3619 9.896 63.8019 9.896C63.1299 9.896 62.5859 10.04 62.1699 10.328C61.7699 10.616 61.5699 11.008 61.5699 11.504C61.5699 11.952 61.7539 12.304 62.1219 12.56C62.5059 12.8 63.2179 13.032 64.2579 13.256C65.3299 13.48 66.1699 13.736 66.7779 14.024C67.3859 14.312 67.8179 14.672 68.0739 15.104C68.3459 15.52 68.4819 16.056 68.4819 16.712C68.4819 17.752 68.0419 18.592 67.1619 19.232C66.2979 19.856 65.1379 20.168 63.6819 20.168ZM76.7988 18.272C77.1508 18.304 77.3988 18.4 77.5428 18.56C77.7028 18.704 77.7828 18.912 77.7828 19.184C77.7828 19.504 77.6548 19.752 77.3988 19.928C77.1588 20.088 76.7988 20.152 76.3188 20.12L75.6708 20.072C74.3748 19.976 73.4068 19.584 72.7668 18.896C72.1268 18.192 71.8068 17.16 71.8068 15.8V10.16H70.3668C69.6628 10.16 69.3108 9.848 69.3108 9.224C69.3108 8.936 69.3988 8.712 69.5748 8.552C69.7668 8.376 70.0308 8.288 70.3668 8.288H71.8068V5.816C71.8068 5.448 71.9108 5.16 72.1188 4.952C72.3428 4.744 72.6388 4.64 73.0068 4.64C73.3748 4.64 73.6708 4.744 73.8948 4.952C74.1188 5.16 74.2308 5.448 74.2308 5.816V8.288H76.6068C76.9428 8.288 77.1988 8.376 77.3748 8.552C77.5668 8.712 77.6628 8.936 77.6628 9.224C77.6628 9.528 77.5668 9.76 77.3748 9.92C77.1988 10.08 76.9428 10.16 76.6068 10.16H74.2308V15.968C74.2308 16.72 74.3828 17.272 74.6868 17.624C75.0068 17.976 75.4868 18.176 76.1268 18.224L76.7988 18.272ZM84.4438 8C85.9958 8 87.1478 8.392 87.8998 9.176C88.6678 9.96 89.0518 11.152 89.0518 12.752V18.968C89.0518 19.336 88.9478 19.624 88.7398 19.832C88.5318 20.024 88.2438 20.12 87.8758 20.12C87.5238 20.12 87.2438 20.016 87.0358 19.808C86.8278 19.6 86.7238 19.32 86.7238 18.968V18.08C86.4198 18.752 85.9638 19.272 85.3558 19.64C84.7638 19.992 84.0678 20.168 83.2678 20.168C82.4998 20.168 81.7958 20.016 81.1558 19.712C80.5158 19.392 80.0118 18.952 79.6438 18.392C79.2918 17.832 79.1158 17.208 79.1158 16.52C79.1158 15.672 79.3318 15.008 79.7638 14.528C80.2118 14.032 80.9398 13.68 81.9478 13.472C82.9718 13.264 84.3718 13.16 86.1478 13.16H86.6998V12.464C86.6998 11.568 86.5158 10.92 86.1478 10.52C85.7798 10.12 85.1878 9.92 84.3718 9.92C83.8118 9.92 83.2838 9.992 82.7878 10.136C82.2918 10.28 81.7478 10.488 81.1558 10.76C80.7238 11 80.4198 11.12 80.2438 11.12C80.0038 11.12 79.8038 11.032 79.6438 10.856C79.4998 10.68 79.4277 10.456 79.4277 10.184C79.4277 9.944 79.4918 9.736 79.6198 9.56C79.7638 9.368 79.9878 9.184 80.2918 9.008C80.8518 8.704 81.5078 8.464 82.2598 8.288C83.0118 8.096 83.7398 8 84.4438 8ZM83.6998 18.368C84.5798 18.368 85.2998 18.072 85.8598 17.48C86.4198 16.872 86.6998 16.096 86.6998 15.152V14.528H86.2678C85.0198 14.528 84.0598 14.584 83.3878 14.696C82.7158 14.808 82.2358 15 81.9478 15.272C81.6598 15.528 81.5158 15.904 81.5158 16.4C81.5158 16.976 81.7238 17.448 82.1398 17.816C82.5558 18.184 83.0758 18.368 83.6998 18.368ZM105.008 8C107.808 8 109.208 9.576 109.208 12.728V18.968C109.208 19.336 109.096 19.624 108.872 19.832C108.664 20.024 108.368 20.12 107.984 20.12C107.616 20.12 107.32 20.016 107.096 19.808C106.888 19.6 106.784 19.32 106.784 18.968V12.848C106.784 11.856 106.584 11.128 106.184 10.664C105.8 10.2 105.192 9.968 104.36 9.968C103.384 9.968 102.6 10.272 102.008 10.88C101.416 11.488 101.12 12.304 101.12 13.328V18.968C101.12 19.32 101.008 19.6 100.784 19.808C100.576 20.016 100.288 20.12 99.9196 20.12C99.5516 20.12 99.2556 20.016 99.0316 19.808C98.8076 19.6 98.6956 19.32 98.6956 18.968V9.2C98.6956 8.864 98.8076 8.592 99.0316 8.384C99.2716 8.16 99.5676 8.048 99.9196 8.048C100.272 8.048 100.552 8.152 100.76 8.36C100.968 8.568 101.072 8.84 101.072 9.176V10.16C101.456 9.456 101.992 8.92 102.68 8.552C103.368 8.184 104.144 8 105.008 8ZM117.444 8C118.996 8 120.148 8.392 120.9 9.176C121.668 9.96 122.052 11.152 122.052 12.752V18.968C122.052 19.336 121.948 19.624 121.74 19.832C121.532 20.024 121.244 20.12 120.876 20.12C120.524 20.12 120.244 20.016 120.036 19.808C119.828 19.6 119.724 19.32 119.724 18.968V18.08C119.42 18.752 118.964 19.272 118.356 19.64C117.764 19.992 117.068 20.168 116.268 20.168C115.5 20.168 114.796 20.016 114.156 19.712C113.516 19.392 113.012 18.952 112.644 18.392C112.292 17.832 112.116 17.208 112.116 16.52C112.116 15.672 112.332 15.008 112.764 14.528C113.212 14.032 113.94 13.68 114.948 13.472C115.972 13.264 117.372 13.16 119.148 13.16H119.7V12.464C119.7 11.568 119.516 10.92 119.148 10.52C118.78 10.12 118.188 9.92 117.372 9.92C116.812 9.92 116.284 9.992 115.788 10.136C115.292 10.28 114.748 10.488 114.156 10.76C113.724 11 113.42 11.12 113.244 11.12C113.004 11.12 112.804 11.032 112.644 10.856C112.5 10.68 112.428 10.456 112.428 10.184C112.428 9.944 112.492 9.736 112.62 9.56C112.764 9.368 112.988 9.184 113.292 9.008C113.852 8.704 114.508 8.464 115.26 8.288C116.012 8.096 116.74 8 117.444 8ZM116.7 18.368C117.58 18.368 118.3 18.072 118.86 17.48C119.42 16.872 119.7 16.096 119.7 15.152V14.528H119.268C118.02 14.528 117.06 14.584 116.388 14.696C115.716 14.808 115.236 15 114.948 15.272C114.66 15.528 114.516 15.904 114.516 16.4C114.516 16.976 114.724 17.448 115.14 17.816C115.556 18.184 116.076 18.368 116.7 18.368ZM139.352 20.192C137.736 20.192 136.328 19.848 135.128 19.16C133.928 18.456 133.008 17.456 132.368 16.16C131.728 14.848 131.408 13.304 131.408 11.528C131.408 9.768 131.728 8.24 132.368 6.944C133.008 5.632 133.928 4.632 135.128 3.944C136.328 3.24 137.736 2.888 139.352 2.888C140.408 2.888 141.408 3.056 142.352 3.392C143.296 3.712 144.12 4.184 144.824 4.808C145.128 5.048 145.28 5.368 145.28 5.768C145.28 6.056 145.2 6.304 145.04 6.512C144.88 6.704 144.688 6.8 144.464 6.8C144.192 6.8 143.928 6.696 143.672 6.488C142.904 5.912 142.2 5.512 141.56 5.288C140.936 5.048 140.224 4.928 139.424 4.928C137.664 4.928 136.312 5.496 135.368 6.632C134.424 7.768 133.952 9.4 133.952 11.528C133.952 13.672 134.424 15.312 135.368 16.448C136.312 17.584 137.664 18.152 139.424 18.152C140.192 18.152 140.888 18.032 141.512 17.792C142.152 17.552 142.872 17.152 143.672 16.592C143.992 16.384 144.256 16.28 144.464 16.28C144.688 16.28 144.88 16.384 145.04 16.592C145.2 16.784 145.28 17.024 145.28 17.312C145.28 17.712 145.128 18.032 144.824 18.272C144.12 18.896 143.296 19.376 142.352 19.712C141.408 20.032 140.408 20.192 139.352 20.192ZM152.623 8C154.175 8 155.327 8.392 156.079 9.176C156.847 9.96 157.231 11.152 157.231 12.752V18.968C157.231 19.336 157.127 19.624 156.919 19.832C156.711 20.024 156.423 20.12 156.055 20.12C155.703 20.12 155.423 20.016 155.215 19.808C155.007 19.6 154.903 19.32 154.903 18.968V18.08C154.599 18.752 154.143 19.272 153.535 19.64C152.943 19.992 152.247 20.168 151.447 20.168C150.679 20.168 149.975 20.016 149.335 19.712C148.695 19.392 148.191 18.952 147.823 18.392C147.471 17.832 147.295 17.208 147.295 16.52C147.295 15.672 147.511 15.008 147.943 14.528C148.391 14.032 149.119 13.68 150.127 13.472C151.151 13.264 152.551 13.16 154.327 13.16H154.879V12.464C154.879 11.568 154.695 10.92 154.327 10.52C153.959 10.12 153.367 9.92 152.551 9.92C151.991 9.92 151.463 9.992 150.967 10.136C150.471 10.28 149.927 10.488 149.335 10.76C148.903 11 148.599 11.12 148.423 11.12C148.183 11.12 147.983 11.032 147.823 10.856C147.679 10.68 147.607 10.456 147.607 10.184C147.607 9.944 147.671 9.736 147.799 9.56C147.943 9.368 148.167 9.184 148.471 9.008C149.031 8.704 149.687 8.464 150.439 8.288C151.191 8.096 151.919 8 152.623 8ZM151.879 18.368C152.759 18.368 153.479 18.072 154.039 17.48C154.599 16.872 154.879 16.096 154.879 15.152V14.528H154.447C153.199 14.528 152.239 14.584 151.567 14.696C150.895 14.808 150.415 15 150.127 15.272C149.839 15.528 149.695 15.904 149.695 16.4C149.695 16.976 149.903 17.448 150.319 17.816C150.735 18.184 151.255 18.368 151.879 18.368ZM161.771 20.12C161.419 20.12 161.123 20.024 160.883 19.832C160.659 19.64 160.547 19.352 160.547 18.968V9.224C160.547 8.84 160.659 8.552 160.883 8.36C161.123 8.152 161.419 8.048 161.771 8.048C162.123 8.048 162.411 8.152 162.635 8.36C162.859 8.552 162.971 8.84 162.971 9.224V18.968C162.971 19.352 162.859 19.64 162.635 19.832C162.411 20.024 162.123 20.12 161.771 20.12ZM161.771 5.696C161.307 5.696 160.939 5.568 160.667 5.312C160.395 5.056 160.259 4.72 160.259 4.304C160.259 3.888 160.395 3.56 160.667 3.32C160.939 3.064 161.307 2.936 161.771 2.936C162.219 2.936 162.579 3.064 162.851 3.32C163.139 3.56 163.283 3.888 163.283 4.304C163.283 4.72 163.147 5.056 162.875 5.312C162.603 5.568 162.235 5.696 161.771 5.696ZM176.224 18.176C176.464 18.416 176.584 18.696 176.584 19.016C176.584 19.32 176.472 19.584 176.248 19.808C176.04 20.016 175.784 20.12 175.48 20.12C175.176 20.12 174.896 19.984 174.64 19.712L170.968 15.584L167.32 19.712C167.064 19.984 166.784 20.12 166.48 20.12C166.176 20.12 165.912 20.008 165.688 19.784C165.48 19.56 165.376 19.296 165.376 18.992C165.376 18.688 165.488 18.416 165.712 18.176L169.504 14L165.904 9.992C165.664 9.72 165.544 9.448 165.544 9.176C165.544 8.872 165.656 8.616 165.88 8.408C166.104 8.184 166.36 8.072 166.648 8.072C166.952 8.072 167.232 8.208 167.488 8.48L170.968 12.416L174.448 8.48C174.704 8.208 174.992 8.072 175.312 8.072C175.6 8.072 175.856 8.184 176.08 8.408C176.304 8.616 176.416 8.872 176.416 9.176C176.416 9.48 176.296 9.752 176.056 9.992L172.456 14L176.224 18.176ZM183.819 8C185.371 8 186.523 8.392 187.275 9.176C188.043 9.96 188.427 11.152 188.427 12.752V18.968C188.427 19.336 188.323 19.624 188.115 19.832C187.907 20.024 187.619 20.12 187.251 20.12C186.899 20.12 186.619 20.016 186.411 19.808C186.203 19.6 186.099 19.32 186.099 18.968V18.08C185.795 18.752 185.339 19.272 184.731 19.64C184.139 19.992 183.443 20.168 182.643 20.168C181.875 20.168 181.171 20.016 180.531 19.712C179.891 19.392 179.387 18.952 179.019 18.392C178.667 17.832 178.491 17.208 178.491 16.52C178.491 15.672 178.707 15.008 179.139 14.528C179.587 14.032 180.315 13.68 181.323 13.472C182.347 13.264 183.747 13.16 185.523 13.16H186.075V12.464C186.075 11.568 185.891 10.92 185.523 10.52C185.155 10.12 184.563 9.92 183.747 9.92C183.187 9.92 182.659 9.992 182.163 10.136C181.667 10.28 181.123 10.488 180.531 10.76C180.099 11 179.795 11.12 179.619 11.12C179.379 11.12 179.179 11.032 179.019 10.856C178.875 10.68 178.803 10.456 178.803 10.184C178.803 9.944 178.867 9.736 178.995 9.56C179.139 9.368 179.363 9.184 179.667 9.008C180.227 8.704 180.883 8.464 181.635 8.288C182.387 8.096 183.115 8 183.819 8ZM183.075 18.368C183.955 18.368 184.675 18.072 185.235 17.48C185.795 16.872 186.075 16.096 186.075 15.152V14.528H185.643C184.395 14.528 183.435 14.584 182.763 14.696C182.091 14.808 181.611 15 181.323 15.272C181.035 15.528 180.891 15.904 180.891 16.4C180.891 16.976 181.099 17.448 181.515 17.816C181.931 18.184 182.451 18.368 183.075 18.368Z" fill="#111111"/>
<g clip-path="url(#clip0)">
<path d="M20.9452 10.0141L12 7.04895L3.0548 10.0141L0.000457764 14.8657L2.81226 15.7978V20.9545L11.9999 24L21.1876 20.9545V15.7978L23.9994 14.8657L20.9452 10.0141ZM18.2498 10.6022L12 12.6739L5.75016 10.6022L12 8.53051L18.2498 10.6022ZM2.147 14.0957L3.81705 11.4429L10.9267 13.7996L9.25672 16.4524L2.147 14.0957ZM4.21859 16.264L9.85987 18.1339L11.2968 15.8514V22.2854L4.21859 19.9391V16.264ZM12.7031 22.2854V15.8514L14.1401 18.1339L19.7814 16.2639V19.939L12.7031 22.2854ZM14.7433 16.4524L13.0733 13.7997L20.1829 11.443L21.853 14.0958L14.7433 16.4524Z" fill="#111111"/>
<path d="M11.2968 0H12.7031V4.69575H11.2968V0Z" fill="#F2C94C"/>
<path d="M4.68359 2.1488L5.90143 1.44567L8.2493 5.51218L7.03147 6.21532L4.68359 2.1488Z" fill="#4B4684"/>
<path d="M15.7504 5.5127L18.0983 1.44618L19.3161 2.14932L16.9682 6.21583L15.7504 5.5127Z" fill="#2F80ED"/>
</g>
<defs>
<clipPath id="clip0">
<rect width="24" height="24" fill="white"/>
</clipPath>
</defs>
</svg>
