<svg width="65" height="40" viewBox="0 0 65 40" fill="none" xmlns="http://www.w3.org/2000/svg">
<path d="M20 40C31.0457 40 40 31.0457 40 20C40 8.95431 31.0457 0 20 0C8.95431 0 0 8.95431 0 20C0 31.0457 8.95431 40 20 40Z" fill="#EE0005"/>
<path d="M44.8481 40C55.8938 40 64.8481 31.0457 64.8481 20C64.8481 8.95431 55.8938 0 44.8481 0C33.8025 0 24.8481 8.95431 24.8481 20C24.8481 31.0457 33.8025 40 44.8481 40Z" fill="#F9A000"/>
<path d="M24.8486 19.9997C24.8486 26.3501 27.8089 32.0086 32.4243 35.6722C37.0394 32.0085 39.9999 26.3501 39.9999 19.9997C39.9999 13.6493 37.0396 7.99074 32.4243 4.32721C27.8091 7.99105 24.8486 13.6494 24.8486 19.9997Z" fill="#FF6300"/>
</svg>
