<svg width="520" height="524" viewBox="0 0 520 524" fill="none" xmlns="http://www.w3.org/2000/svg">
<g clip-path="url(#clip0)">
<path fill-rule="evenodd" clip-rule="evenodd" d="M80.2932 97.7348C50.8909 98.791 35.5293 112.656 17.0972 165.612C-1.33498 218.568 40.7957 215.642 40.7957 243.144C40.7957 270.646 4.68151 271.802 1.17062 286.138C-2.34026 300.474 -0.164682 337.938 46.3546 328.283C92.8738 318.628 106.205 278.823 100.061 264.78C93.9166 250.736 106.04 229.686 114.817 219.153C123.594 208.62 122.759 200.02 112.056 162.379C101.353 124.738 109.696 96.6786 80.2932 97.7348V97.7348ZM445.961 291.712C416.558 292.768 401.197 306.633 382.765 359.589C364.332 412.545 404.923 385.628 404.923 413.13C404.923 440.632 370.349 465.779 366.838 480.115C363.327 494.451 365.503 531.915 412.022 522.26C458.541 512.605 525.463 462.546 519.319 448.503C513.175 434.459 483.218 419.07 465.778 381.796C448.339 344.522 475.363 290.656 445.961 291.712V291.712ZM159.499 282.803C138.716 303.628 136.938 324.245 159.573 375.545C182.208 426.845 118.346 430.118 137.103 450.231C155.859 470.345 216.329 419.791 223.538 432.67C230.747 445.549 264.475 513.349 291.912 474.562C319.349 435.774 301.952 397.571 287.881 391.491C273.81 385.41 239.171 381.11 238.407 367.421C237.643 353.732 260.315 328.649 226.817 308.419C193.318 288.189 180.283 261.978 159.499 282.803ZM290.001 214.086C318.675 220.676 318.701 206.712 350.211 160.331C381.722 113.95 436.738 170.921 443.856 144.356C450.974 117.792 398.406 86.6682 405.508 73.7291C412.61 60.7901 429.886 2.89172 382.453 0.177803C335.02 -2.53641 312.803 58.5738 315.103 73.7291C317.402 88.8845 301.205 122.294 290.001 130.196C278.796 138.098 213.861 163.625 214.457 202.754C215.053 241.883 261.327 207.497 290.001 214.086Z" fill="white" fill-opacity="0.05"/>
</g>
<defs>
<clipPath id="clip0">
<rect width="519.904" height="524" fill="white"/>
</clipPath>
</defs>
</svg>
