<svg width="48" height="16" viewBox="0 0 48 16" fill="none" xmlns="http://www.w3.org/2000/svg">
<path d="M19.153 0.799015L16.722 15.065H20.61L23.043 0.799015H19.153Z" fill="white"/>
<path d="M13.462 0.815016L9.654 10.544L9.248 9.07502C8.497 7.30502 6.365 4.76301 3.862 3.16101L7.344 15.058L11.458 15.051L17.581 0.812016L13.462 0.815016Z" fill="white"/>
<path d="M7.772 1.83602C7.546 0.967016 6.891 0.708015 6.078 0.677015H0.05L0 0.961016C4.691 2.09902 7.795 4.84102 9.083 8.13802L7.772 1.83602Z" fill="white"/>
<path d="M30.923 3.53402C32.195 3.51402 33.117 3.79202 33.833 4.08002L34.184 4.24502L34.71 1.15302C33.94 0.864015 32.733 0.554016 31.227 0.554016C27.385 0.554016 24.677 2.48901 24.656 5.26201C24.631 7.31101 26.585 8.45502 28.061 9.13802C29.576 9.83802 30.084 10.283 30.077 10.908C30.065 11.863 28.869 12.301 27.752 12.301C26.195 12.301 25.368 12.086 24.091 11.554L23.59 11.326L23.043 14.519C23.953 14.918 25.632 15.261 27.375 15.279C31.462 15.279 34.118 13.367 34.146 10.404C34.163 8.78301 33.126 7.54602 30.879 6.53102C29.519 5.86902 28.687 5.42902 28.695 4.76101C28.695 4.16802 29.401 3.53402 30.923 3.53402Z" fill="white"/>
<path d="M44.688 0.815016H41.684C40.751 0.815016 40.057 1.06902 39.647 1.99902L33.874 15.073H37.957C37.957 15.073 38.623 13.315 38.774 12.93C39.221 12.93 43.188 12.936 43.753 12.936C43.869 13.434 44.227 15.073 44.227 15.073H47.834L44.688 0.815016ZM39.893 10.01C40.213 9.19102 41.442 6.02302 41.442 6.02302C41.421 6.06202 41.759 5.19801 41.96 4.66101L42.222 5.89102C42.222 5.89102 42.967 9.29702 43.123 10.01H39.893Z" fill="white"/>
</svg>
